<?xml version="1.0" encoding="utf-8"?>
<!-- Generator: Adobe Illustrator 27.6.1, SVG Export Plug-In . SVG Version: 6.00 Build 0)  -->
<svg version="1.1" id="Layer_1" xmlns="http://www.w3.org/2000/svg" xmlns:xlink="http://www.w3.org/1999/xlink" x="0px" y="0px"
	 viewBox="0 -447.5 1285 1285" style="enable-background:new 0 -447.5 1285 1285;" xml:space="preserve">
<style type="text/css">
	.st0{fill:#002D72;}
	.st1{clip-path:url(#SVGID_00000007426569562664357540000011420409060984413623_);fill:#002D72;}
	.st2{clip-path:url(#SVGID_00000007426569562664357540000011420409060984413623_);fill:#044C7D;}
	.st3{clip-path:url(#SVGID_00000062899323340786205670000004655147005436072332_);fill:#002D72;}
	.st4{clip-path:url(#SVGID_00000138545320350228372460000015762151581673032851_);}
	.st5{clip-path:url(#SVGID_00000070804219043661929790000001628732270847238274_);}
	.st6{display:none;fill:#043673;}
	.st7{fill:#FFFFFF;}
	.st8{clip-path:url(#SVGID_00000061461078895984773440000011454721761572534939_);fill:#FFFFFF;}
	.st9{clip-path:url(#SVGID_00000075123393577829096240000006663842397986120590_);fill:#FFFFFF;}
	.st10{clip-path:url(#SVGID_00000140698248635023992700000012692239635927819653_);fill:#002D72;}
	.st11{clip-path:url(#SVGID_00000140698248635023992700000012692239635927819653_);fill:#044C7D;}
	.st12{clip-path:url(#SVGID_00000101104569748201833140000004991132949253850521_);fill:#002D72;}
	.st13{clip-path:url(#SVGID_00000067226091561388961730000006550439353610363578_);}
	.st14{clip-path:url(#SVGID_00000166676775524128062670000006417517989807247034_);}
	.st15{clip-path:url(#SVGID_00000099630332785502795330000001260619281174267788_);fill:#FFFFFF;}
	.st16{clip-path:url(#SVGID_00000088090531205907455010000004744417958049747589_);fill:#FFFFFF;}
</style>
<g>
	<g>
		<path d="M480.2,258.7c0-3.7-0.1-10.6-1.1-12.4c-0.4-0.7-1.5-1.1-3-1.3l-1.5-0.1c-0.4-0.4-0.2-1.2,0.1-1.4c2.3,0.1,4.5,0.2,6.8,0.2
			c2.5,0,4.1-0.1,6.3-0.2c0.5,0.3,0.4,1.1,0.1,1.4l-1.4,0.1c-1.5,0.1-2.6,0.7-3,1.4c-0.8,2-0.8,8.9-0.8,12.2v6.8
			c0,5.2-0.8,10.7-4.2,14.3c-2.6,2.8-7,4.4-11.5,4.4c-4.1,0-8.3-0.8-11.2-3.3c-3.2-2.6-4.7-7-4.7-14.2v-14.2c0-6.2-0.1-7.3-3.6-7.6
			l-1.5-0.1c-0.4-0.2-0.2-1.3,0.1-1.4c3,0.1,5,0.2,7.4,0.2c2.5,0,4.4-0.1,7.4-0.2c0.4,0.2,0.5,1.2,0.1,1.4l-1.4,0.1
			c-3.5,0.3-3.6,1.3-3.6,7.6v13c0,9.7,3,16,12.2,16c8.7,0,12-6.8,12-16V258.7z"/>
		<path d="M558.6,273c0,1.8,0,8.9,0.2,10.5c-0.1,0.4-0.5,0.7-1.1,0.7c-0.7-1-2.5-3.1-7.7-9.1l-13.9-15.8c-1.6-1.9-5.7-6.8-7-8.1H529
			c-0.2,0.7-0.3,2.1-0.3,3.9v13.1c0,2.8,0.1,10.6,1.1,12.4c0.4,0.7,1.6,1,3.1,1.1l1.9,0.2c0.4,0.5,0.3,1.2-0.1,1.5
			c-2.7-0.1-4.8-0.2-7-0.2c-2.5,0-4.1,0.1-6.2,0.2c-0.4-0.3-0.5-1.1-0.1-1.5l1.6-0.2c1.4-0.2,2.3-0.5,2.6-1.2
			c0.8-2.1,0.8-9.5,0.8-12.4v-17.3c0-1.7-0.1-2.9-1.3-4.3c-0.8-0.8-2.3-1.3-3.7-1.4l-1-0.1c-0.4-0.4-0.4-1.3,0.1-1.5
			c2.5,0.2,5.7,0.2,6.8,0.2c1,0,2-0.1,2.8-0.2c1.2,3.1,8.3,11,10.3,13.2l5.8,6.5c4.1,4.6,7.1,8,9.9,10.9h0.1
			c0.2-0.3,0.2-1.3,0.2-2.5v-12.8c0-2.8-0.1-10.6-1.2-12.4c-0.4-0.6-1.3-0.9-3.7-1.2l-1-0.1c-0.4-0.4-0.4-1.3,0.1-1.5
			c2.8,0.1,4.8,0.2,7.1,0.2c2.6,0,4.1-0.1,6.2-0.2c0.5,0.3,0.5,1.1,0.1,1.5l-0.8,0.1c-1.9,0.3-3.1,0.8-3.4,1.3
			c-1,2.2-0.9,9.6-0.9,12.4V273z"/>
		<path d="M603.3,252.7c0-6.4-0.1-7.4-3.7-7.7l-1.5-0.1c-0.4-0.2-0.2-1.3,0.1-1.5c3,0.1,5,0.2,7.6,0.2c2.4,0,4.4-0.1,7.4-0.2
			c0.4,0.2,0.5,1.3,0.1,1.5l-1.5,0.1c-3.5,0.3-3.7,1.3-3.7,7.7v21.4c0,6.4,0.1,7.2,3.7,7.6l1.5,0.2c0.4,0.2,0.2,1.3-0.1,1.5
			c-3-0.1-5-0.2-7.4-0.2c-2.5,0-4.6,0.1-7.6,0.2c-0.4-0.2-0.5-1.1-0.1-1.5l1.5-0.2c3.5-0.4,3.7-1.3,3.7-7.6V252.7z"/>
		<path d="M651.9,250c-1.4-3.4-2.3-4.6-4.9-4.9l-1.1-0.1c-0.4-0.4-0.4-1.2,0.1-1.5c1.7,0.1,3.7,0.2,6.2,0.2c2.6,0,4.7-0.1,7.3-0.2
			c0.4,0.2,0.5,1.1,0.1,1.5l-0.9,0.1c-2.3,0.3-2.8,0.7-2.8,1.1c0.1,0.6,1.1,3.8,3,8.4c2.8,7,5.5,13.9,8.5,20.7
			c1.8-4,4.4-10.1,5.8-13.3c1.7-4.1,4.6-10.9,5.6-13.4c0.5-1.3,0.5-1.9,0.5-2.3c0-0.4-0.6-0.9-2.7-1.1l-1.1-0.1
			c-0.4-0.4-0.3-1.3,0.1-1.5c1.7,0.1,4,0.2,6.2,0.2c2,0,3.8-0.1,5.8-0.2c0.4,0.2,0.4,1.2,0.1,1.5l-1.8,0.1c-1.4,0.1-2.3,0.8-3.1,2.1
			c-1.7,2.8-4,7.7-6.7,13.8l-3.2,7.4c-2.4,5.5-5.2,12.5-6.2,15.7c-0.2,0.1-0.4,0.2-0.6,0.2c-0.3,0-0.6-0.1-0.9-0.2
			c-0.7-2.5-1.7-5.5-2.8-8L651.9,250z"/>
		<path d="M724.2,252.6c0-6.3-0.1-7.2-3.7-7.6l-1-0.1c-0.4-0.2-0.2-1.3,0.1-1.5c2.6,0.1,4.6,0.2,7.1,0.2H738c3.8,0,7.4,0,8.1-0.2
			c0.4,1,0.7,5.3,1,8c-0.2,0.4-1.2,0.5-1.5,0.1c-0.9-2.8-1.4-4.9-4.6-5.7c-1.3-0.3-3.2-0.4-5.8-0.4h-4.3c-1.8,0-1.8,0.1-1.8,2.4v12
			c0,1.7,0.2,1.7,2,1.7h3.5c2.5,0,4.4-0.1,5.1-0.4c0.7-0.2,1.1-0.6,1.4-2.1l0.5-2.5c0.3-0.4,1.3-0.4,1.5,0.1c0,1.4-0.2,3.8-0.2,6.1
			c0,2.2,0.2,4.4,0.2,5.7c-0.2,0.4-1.3,0.4-1.5,0.1l-0.6-2.3c-0.2-1.1-0.6-2-1.8-2.3c-0.8-0.2-2.3-0.3-4.6-0.3h-3.5
			c-1.8,0-2,0.1-2,1.6v8.5c0,3.2,0.2,5.2,1.1,6.2c0.7,0.7,2,1.4,7.3,1.4c4.6,0,6.4-0.2,7.7-0.9c1.1-0.6,2.7-2.7,4.3-5.8
			c0.4-0.3,1.3-0.1,1.5,0.4c-0.4,2.1-1.9,6.7-2.7,8.3c-5.4-0.1-10.7-0.2-16.1-0.2h-5.4c-2.6,0-4.6,0.1-8.2,0.2
			c-0.4-0.2-0.5-1.1-0.1-1.5l2-0.2c3.4-0.3,3.7-1.2,3.7-7.5V252.6z"/>
		<path d="M789.2,252.7c0-5.7-0.2-6.7-2.6-7l-1.9-0.2c-0.4-0.3-0.4-1.3,0.1-1.5c3.3-0.3,7.5-0.5,13.4-0.5c3.7,0,7.3,0.3,10,1.8
			c2.9,1.5,5,4.2,5,8.4c0,5.7-4.5,8.8-7.5,10c-0.3,0.4,0,1,0.3,1.4c4.8,7.7,8,12.5,12.1,16c1,0.9,2.5,1.6,4.1,1.7
			c0.3,0.1,0.4,0.6,0.1,0.8c-0.5,0.2-1.5,0.3-2.6,0.3c-5.1,0-8.2-1.5-12.4-7.6c-1.6-2.2-4-6.4-5.9-9.1c-0.9-1.3-1.9-1.9-4.3-1.9
			c-2.7,0-2.8,0.1-2.8,1.3v7.6c0,6.3,0.1,7,3.6,7.5l1.2,0.2c0.4,0.3,0.2,1.3-0.1,1.5c-2.7-0.1-4.7-0.2-7.1-0.2
			c-2.5,0-4.7,0.1-7.5,0.2c-0.4-0.2-0.5-1.1-0.1-1.5l1.5-0.2c3.5-0.4,3.6-1.2,3.6-7.5V252.7z M794.1,261.3c0,1.1,0,1.7,0.2,2
			c0.2,0.2,1.1,0.3,4.1,0.3c2.2,0,4.4-0.2,6.2-1.6c1.6-1.3,3-3.4,3-7.4c0-4.7-2.9-9.2-9.6-9.2c-3.7,0-3.9,0.2-3.9,1.9V261.3z"/>
		<path d="M861.7,284.2c-5,0-8.2-1.6-9.4-2.2c-0.7-1.3-1.5-5.6-1.6-8.4c0.3-0.4,1.2-0.5,1.4-0.2c0.9,3.1,3.4,8.9,10.3,8.9
			c5,0,7.5-3.3,7.5-6.9c0-2.6-0.5-5.6-4.9-8.4l-5.7-3.7c-3-2-6.5-5.4-6.5-10.3c0-5.7,4.4-10.3,12.2-10.3c1.9,0,4,0.4,5.6,0.8
			c0.8,0.2,1.6,0.4,2.1,0.4c0.5,1.4,1.1,4.8,1.1,7.3c-0.2,0.4-1.2,0.5-1.5,0.2c-0.8-2.9-2.4-6.8-8.2-6.8c-5.9,0-7.1,3.9-7.1,6.7
			c0,3.5,2.9,6,5.1,7.4l4.8,3c3.8,2.3,7.5,5.8,7.5,11.5C874.5,279.7,869.5,284.2,861.7,284.2"/>
		<path d="M915.3,252.7c0-6.4-0.1-7.4-3.7-7.7l-1.5-0.1c-0.4-0.2-0.2-1.3,0.1-1.5c3,0.1,5,0.2,7.6,0.2c2.4,0,4.4-0.1,7.4-0.2
			c0.4,0.2,0.5,1.3,0.1,1.5l-1.5,0.1c-3.5,0.3-3.7,1.3-3.7,7.7v21.4c0,6.4,0.1,7.2,3.7,7.6l1.5,0.2c0.4,0.2,0.2,1.3-0.1,1.5
			c-3-0.1-5-0.2-7.4-0.2c-2.5,0-4.6,0.1-7.6,0.2c-0.4-0.2-0.5-1.1-0.1-1.5l1.5-0.2c3.5-0.4,3.7-1.3,3.7-7.6V252.7z"/>
		<path d="M981.9,274.2c0,6.3,0.1,7.2,3.6,7.5l1.9,0.2c0.4,0.2,0.2,1.3-0.1,1.5c-3.4-0.1-5.5-0.2-7.9-0.2c-2.4,0-4.5,0.1-8.3,0.2
			c-0.4-0.2-0.5-1.2,0-1.5l2.2-0.2c3.4-0.3,3.7-1.2,3.7-7.5v-26.8c0-1.9,0-1.9-1.8-1.9h-3.3c-2.6,0-5.9,0.1-7.4,1.5
			c-1.4,1.3-2,2.6-2.7,4.1c-0.5,0.4-1.3,0.1-1.6-0.4c1-2.7,1.9-6.6,2.3-8.9c0.2-0.1,1-0.2,1.1,0c0.4,1.9,2.3,1.9,5.1,1.9h24.3
			c3.2,0,3.8-0.1,4.7-1.7c0.3-0.1,1-0.1,1.1,0.2c-0.7,2.5-1.1,7.3-0.9,9.1c-0.2,0.5-1.3,0.5-1.6,0.1c-0.2-1.5-0.6-3.7-1.5-4.4
			c-1.4-1-3.7-1.5-7-1.5h-4.3c-1.8,0-1.7,0.1-1.7,2V274.2z"/>
		<path d="M1050.3,274.1c0,6.4,0.4,7.4,3.6,7.6l2.3,0.2c0.3,0.4,0.2,1.3-0.1,1.5c-3.7-0.1-5.8-0.2-8.2-0.2c-2.5,0-4.7,0.1-7.9,0.2
			c-0.4-0.2-0.5-1.1-0.1-1.5l1.9-0.2c3.5-0.4,3.6-1.2,3.6-7.6V271c0-3.3-0.2-4.1-1.9-7.4l-7.1-13.8c-2-4-2.9-4.3-4.7-4.6l-1.7-0.3
			c-0.4-0.4-0.3-1.3,0.1-1.5c1.9,0.1,4.1,0.2,7,0.2c2.8,0,4.9-0.1,6.4-0.2c0.5,0.2,0.5,1.1,0.2,1.5l-0.8,0.1
			c-2.1,0.3-2.5,0.6-2.5,1.1c0,0.6,1.6,4,1.9,4.6c2.2,4.4,4.4,9.2,6.8,13.3c1.8-3.2,3.8-6.7,5.6-10.1c1.7-3.1,3.9-7.2,3.9-7.9
			c0-0.4-1.1-0.8-2.5-1l-1.1-0.1c-0.4-0.4-0.4-1.3,0.1-1.5c2.2,0.1,3.9,0.2,5.8,0.2c1.9,0,3.5-0.1,5.6-0.2c0.5,0.3,0.5,1.1,0.1,1.5
			l-1.7,0.3c-3.1,0.5-4.9,4.3-7.9,9.5l-3.8,6.5c-2.6,4.6-2.8,5.1-2.8,9.7V274.1z"/>
	</g>
	<g>
		<defs>
			<rect id="SVGID_00000060022107125425131760000002944219320721300377_" x="92.9" y="90.8" width="194.9" height="210"/>
		</defs>
		<clipPath id="SVGID_00000170993457932665600220000006642331175670252948_">
			<use xlink:href="#SVGID_00000060022107125425131760000002944219320721300377_"  style="overflow:visible;"/>
		</clipPath>
		<path style="clip-path:url(#SVGID_00000170993457932665600220000006642331175670252948_);" d="M194.6,299.1
			c5.1-2.8,11.3-6.7,18-11.8v-60.7l-18-12V299.1z"/>
		<path style="clip-path:url(#SVGID_00000170993457932665600220000006642331175670252948_);" d="M194.6,172.6l18,12v-30.7
			c-6-0.3-12-0.4-18-0.5V172.6z"/>
		<path style="clip-path:url(#SVGID_00000170993457932665600220000006642331175670252948_);" d="M248.7,157.1c-6-0.8-12-1.4-18-1.9
			v41.4l18,12V157.1z"/>
		<path style="clip-path:url(#SVGID_00000170993457932665600220000006642331175670252948_);" d="M230.7,238.6v33
			c6.1-6,12.2-13,18-20.9v-0.1L230.7,238.6z"/>
		<path style="clip-path:url(#SVGID_00000170993457932665600220000006642331175670252948_);" d="M248.7,250.6
			C248.7,250.6,248.7,250.6,248.7,250.6L248.7,250.6L248.7,250.6z"/>
		<path style="clip-path:url(#SVGID_00000170993457932665600220000006642331175670252948_);" d="M266.7,159.8v60.8l0.1,0
			c7.9-16.3,14.2-35.3,17.8-57.4l-0.6-0.1C278.3,161.9,272.5,160.8,266.7,159.8"/>
		<polygon style="clip-path:url(#SVGID_00000170993457932665600220000006642331175670252948_);" points="212.6,184.6 212.6,226.6 
			230.7,238.6 230.7,196.6 		"/>
		<path style="clip-path:url(#SVGID_00000170993457932665600220000006642331175670252948_);" d="M248.7,208.6v42l0,0
			c6.5-8.7,12.6-18.7,18-29.9v-0.1L248.7,208.6z"/>
		<path style="clip-path:url(#SVGID_00000170993457932665600220000006642331175670252948_);" d="M266.7,220.7
			C266.8,220.7,266.8,220.6,266.7,220.7v-0.1V220.7z"/>
		<path style="clip-path:url(#SVGID_00000170993457932665600220000006642331175670252948_);" d="M155,229.3c5.3-1.5,10-4.4,13.6-8.5
			c-2-0.7-4.3-1.4-6.9-2C159.7,223.2,157.3,226.7,155,229.3"/>
		<path style="clip-path:url(#SVGID_00000170993457932665600220000006642331175670252948_);" d="M126.4,220.9c3.6,4,8.3,7,13.6,8.5
			c-2.2-2.6-4.7-6.1-6.7-10.5C130.7,219.4,128.4,220.2,126.4,220.9"/>
		<path style="clip-path:url(#SVGID_00000170993457932665600220000006642331175670252948_);" d="M144.9,177.1c-2,2.2-4.3,5.2-6.2,9
			c1.9,0.3,4,0.4,6.2,0.5V177.1z"/>
		<path style="clip-path:url(#SVGID_00000170993457932665600220000006642331175670252948_);" d="M163.5,213.9c3.3,0.8,6,1.7,8.3,2.6
			c2.1-3.5,3.5-7.6,3.9-11.9h-10.5C165,208,164.4,211.1,163.5,213.9"/>
		<path style="clip-path:url(#SVGID_00000170993457932665600220000006642331175670252948_);" d="M140,174.7
			c-5.3,1.5-10,4.5-13.6,8.5c2,0.7,4.3,1.4,6.9,2C135.3,180.8,137.8,177.4,140,174.7"/>
		<path style="clip-path:url(#SVGID_00000170993457932665600220000006642331175670252948_);" d="M168.6,183.2c-3.6-4-8.3-7-13.6-8.4
			c2.2,2.6,4.7,6.1,6.7,10.5C164.3,184.6,166.6,183.9,168.6,183.2"/>
		<path style="clip-path:url(#SVGID_00000170993457932665600220000006642331175670252948_);" d="M165.2,199.4h10.5
			c-0.4-4.3-1.8-8.3-3.9-11.9c-2.3,0.9-5,1.8-8.3,2.6C164.4,192.9,165,196.1,165.2,199.4"/>
		<path style="clip-path:url(#SVGID_00000170993457932665600220000006642331175670252948_);" d="M150.1,227c2-2.2,4.3-5.2,6.2-9.1
			c-1.9-0.3-4-0.4-6.2-0.5V227z"/>
		<path style="clip-path:url(#SVGID_00000170993457932665600220000006642331175670252948_);" d="M144.9,204.6H135
			c0.2,3,0.8,5.8,1.6,8.3c2.5-0.4,5.3-0.6,8.2-0.8V204.6z"/>
		<path style="clip-path:url(#SVGID_00000170993457932665600220000006642331175670252948_);" d="M150.1,212.2c3,0.1,5.7,0.4,8.2,0.7
			c0.8-2.5,1.4-5.3,1.6-8.3h-9.9V212.2z"/>
		<path style="clip-path:url(#SVGID_00000170993457932665600220000006642331175670252948_);" d="M156.3,186.1
			c-1.9-3.9-4.3-6.9-6.2-9.1v9.6C152.3,186.6,154.4,186.4,156.3,186.1"/>
		<path style="clip-path:url(#SVGID_00000170993457932665600220000006642331175670252948_);" d="M160,199.4c-0.2-3-0.8-5.8-1.6-8.3
			c-2.5,0.4-5.3,0.6-8.2,0.8v7.6H160z"/>
		<path style="clip-path:url(#SVGID_00000170993457932665600220000006642331175670252948_);" d="M138.7,217.9c1.9,3.8,4.2,6.9,6.2,9
			v-9.5C142.7,217.5,140.6,217.7,138.7,217.9"/>
		<path style="clip-path:url(#SVGID_00000170993457932665600220000006642331175670252948_);" d="M131.5,190.1
			c-3.3-0.8-6-1.7-8.3-2.6c-2.1,3.5-3.5,7.6-3.9,11.9h10.5C130,196.1,130.6,192.9,131.5,190.1"/>
		<path style="clip-path:url(#SVGID_00000170993457932665600220000006642331175670252948_);" d="M144.9,191.9
			c-2.9-0.1-5.7-0.4-8.2-0.8c-0.8,2.5-1.4,5.3-1.6,8.3h9.8V191.9z"/>
		<path style="clip-path:url(#SVGID_00000170993457932665600220000006642331175670252948_);" d="M129.8,204.6h-10.5
			c0.4,4.3,1.8,8.3,3.9,11.9c2.3-0.9,5-1.8,8.3-2.6C130.6,211.1,130,208,129.8,204.6"/>
		<path style="clip-path:url(#SVGID_00000170993457932665600220000006642331175670252948_);" d="M96.1,163.2
			c13.2,81.8,64.5,121.8,90,135.9V153.4c-30.2,0.3-60.2,3.5-89.4,9.7L96.1,163.2z M147.5,168.5c18.5,0,33.5,15,33.5,33.5
			c0,18.5-15.1,33.5-33.5,33.5c-18.5,0-33.5-15.1-33.5-33.5C114,183.5,129,168.5,147.5,168.5"/>
		<path style="clip-path:url(#SVGID_00000170993457932665600220000006642331175670252948_);" d="M283.9,100.6L283.9,100.6
			c-30.2-6.5-61.5-9.9-93.6-9.9c-32.1,0-63.4,3.4-93.6,9.9l-0.1,0c-2.1,0.5-3.7,2.5-3.7,4.8l0,16.9c0,11.1,0.7,21.6,1.9,31.5
			c31.3-6.6,63.5-9.9,95.6-9.9c32.1,0,64.2,3.3,95.5,9.9c1.2-9.9,1.9-20.4,1.9-31.5l0-16.9C287.8,103.1,286.1,101.1,283.9,100.6
			 M262.8,142.5c-23.5-4.5-50.4-5.8-72.5-5.8h0c-22.1,0-49,1.4-72.5,5.8c-0.9,0.2-1.7-0.6-1.2-1.6l15.4-34.1
			c0.2-0.3,10.1-5.2,10.1-5.2c12.7-2.7,33.5-1.5,48.1,3.9h0.1c14.6-5.4,35.4-6.5,48.1-3.9c0,0,10,4.9,10.1,5.2l15.4,34.1
			C264.5,141.9,263.7,142.7,262.8,142.5"/>
		<path style="clip-path:url(#SVGID_00000170993457932665600220000006642331175670252948_);" d="M234.4,107.5l6.5,17.4
			c-15.1-2.1-27.6-1.1-46.1,4.9v1.6c17.5-0.7,39.6-1.6,57.4,2.2l-9.7-22.4L234.4,107.5z"/>
		<path style="clip-path:url(#SVGID_00000170993457932665600220000006642331175670252948_);" d="M139.5,124.8l6.5-17.4l-8.1,3.7
			l-9.7,22.4c17.9-3.8,40-2.9,57.4-2.2v-1.6C167.2,123.7,154.7,122.8,139.5,124.8"/>
	</g>
	<g>
		<defs>
			<rect id="SVGID_00000063615508147414573500000006587999673128449927_" x="320.5" y="114.5" width="871.6" height="119"/>
		</defs>
		<clipPath id="SVGID_00000144332770068257576880000018166108662952150691_">
			<use xlink:href="#SVGID_00000063615508147414573500000006587999673128449927_"  style="overflow:visible;"/>
		</clipPath>
		<path style="clip-path:url(#SVGID_00000144332770068257576880000018166108662952150691_);" d="M345.4,135.9
			c0-15.3-1.4-16.9-9.5-17.6l-3.4-0.3c-0.8-0.6-0.6-3,0.3-3.4c8,0.3,12.7,0.4,18.5,0.4c5.5,0,10.2-0.1,15.7-0.4
			c0.8,0.4,1.1,2.9,0.3,3.4l-2.1,0.3c-8.1,1.1-8.4,3-8.4,17.6V187c0,10.9-0.6,20.4-3.2,26.7c-4.5,11-14.3,19.8-27.1,19.8
			c-1.7,0-5.9-0.1-5.9-2.9c0-2.3,2.1-6.3,5-6.3c1.7,0,3.3,0.3,5.1,0.8c1.9,0.5,3.9,1,5.8,1c2.9,0,4.5-1.7,5.5-3.6
			c3.2-6.5,3.6-27.1,3.6-34.6V135.9z"/>
		<path style="clip-path:url(#SVGID_00000144332770068257576880000018166108662952150691_);" d="M366.9,168.3
			c0-23.2,17.4-41,41.4-41c26.8,0,40.3,19.4,40.3,39.9c0,23.5-17.9,40.6-40.3,40.6C382.5,207.7,366.9,189.3,366.9,168.3 M437,170.8
			c0-19.2-8.5-39.9-30.7-39.9c-12.1,0-27.8,8.3-27.8,33.7c0,17.2,8.4,39.5,31.3,39.5C423.7,204.1,437,193.7,437,170.8"/>
		<path style="clip-path:url(#SVGID_00000144332770068257576880000018166108662952150691_);" d="M475,168.3c-5.6,0-5.8,0.2-5.8,3.7
			v16.4c0,12.2,0.6,13.8,7.1,14.5l3.4,0.4c0.7,0.5,0.5,2.6-0.2,2.9c-6.3-0.2-10.2-0.3-14.8-0.3c-5,0-8.9,0.2-13.5,0.3
			c-0.7-0.3-0.9-2.2-0.2-2.9l2-0.4c6.5-1.2,6.7-2.3,6.7-14.5v-41.8c0-12.2-0.8-14.2-6.9-14.6l-3-0.2c-0.7-0.5-0.5-2.6,0.2-2.9
			c5.7,0.1,9.7,0.3,14.6,0.3c4.5,0,8.5-0.1,13.5-0.3c0.7,0.3,0.9,2.4,0.2,2.9l-2.2,0.2c-6.7,0.7-7,2.4-7,14.6V160
			c0,3.6,0.2,3.7,5.8,3.7h33.2c5.6,0,5.8-0.1,5.8-3.7v-13.4c0-12.2-0.2-13.9-7.1-14.6l-2.2-0.2c-0.7-0.5-0.5-2.6,0.2-2.9
			c5.3,0.2,9.3,0.3,14.1,0.3c4.5,0,8.5-0.1,13.7-0.3c0.7,0.3,0.9,2.4,0.2,2.9l-2.4,0.2c-6.7,0.7-7,2.4-7,14.6v41.8
			c0,12.2,0.2,13.7,7,14.5l2.8,0.4c0.7,0.5,0.5,2.6-0.2,2.9c-5.6-0.2-9.5-0.3-14.1-0.3c-4.8,0-8.9,0.1-14.1,0.3
			c-0.7-0.3-0.9-2.2-0.2-2.9l2.2-0.4c7.1-1.2,7.1-2.3,7.1-14.5v-16.4c0-3.5-0.2-3.7-5.8-3.7H475z"/>
		<path style="clip-path:url(#SVGID_00000144332770068257576880000018166108662952150691_);" d="M612.7,186.1c0,3.5,0,17.3,0.3,20.3
			c-0.2,0.7-0.9,1.3-2.2,1.3c-1.4-2-4.8-6-14.9-17.5l-27-30.7c-3.1-3.6-11-13.1-13.5-15.7h-0.2c-0.5,1.4-0.6,4.1-0.6,7.5v25.3
			c0,5.5,0.1,20.6,2.1,24c0.7,1.3,3,2,5.9,2.2l3.6,0.4c0.7,0.9,0.6,2.3-0.2,2.9c-5.2-0.2-9.3-0.3-13.6-0.3c-4.9,0-8,0.1-12.1,0.3
			c-0.8-0.6-0.9-2.2-0.2-2.9l3.1-0.4c2.7-0.3,4.5-1,5.1-2.3c1.6-4.2,1.5-18.4,1.5-23.9v-33.6c0-3.3-0.1-5.7-2.6-8.4
			c-1.6-1.6-4.4-2.4-7.2-2.8l-2-0.2c-0.7-0.7-0.7-2.4,0.2-2.9c4.9,0.3,11,0.3,13.1,0.3c1.9,0,3.8-0.1,5.3-0.3
			c2.3,5.9,16,21.3,19.9,25.6l11.3,12.7c8,8.9,13.7,15.5,19.2,21h0.2c0.5-0.6,0.5-2.4,0.5-4.9v-24.9c0-5.5-0.1-20.6-2.3-24.1
			c-0.7-1-2.6-1.7-7.2-2.3l-2-0.2c-0.8-0.7-0.7-2.6,0.2-2.9c5.3,0.2,9.3,0.3,13.7,0.3c5,0,8-0.1,12-0.3c0.9,0.6,0.9,2.2,0.2,2.9
			L621,132c-3.7,0.6-6,1.5-6.5,2.4c-2,4.2-1.7,18.6-1.7,23.9V186.1z"/>
		<path style="clip-path:url(#SVGID_00000144332770068257576880000018166108662952150691_);" d="M643.4,207.7
			c-9.8,0-15.9-3-18.1-4.3c-1.4-2.6-2.9-10.8-3.1-16.3c0.6-0.8,2.3-1.1,2.8-0.3c1.7,5.9,6.5,17.3,20,17.3c9.8,0,14.5-6.4,14.5-13.4
			c0-5.1-1-10.8-9.5-16.3l-11-7.2c-5.8-3.8-12.5-10.5-12.5-20c0-11,8.6-20,23.7-20c3.6,0,7.8,0.7,10.8,1.5c1.5,0.5,3.1,0.7,4.1,0.7
			c1,2.8,2.1,9.3,2.1,14.2c-0.5,0.7-2.3,1-2.9,0.4c-1.5-5.6-4.6-13.1-15.8-13.1c-11.4,0-13.8,7.6-13.8,12.9c0,6.7,5.6,11.6,9.9,14.3
			l9.3,5.8c7.3,4.5,14.5,11.3,14.5,22.3C668.2,199,658.5,207.7,643.4,207.7"/>
		<path style="clip-path:url(#SVGID_00000144332770068257576880000018166108662952150691_);" d="M737.2,161.4
			c-6.6,0-6.9,0.3-6.9,4.4v19.4c0,14.5,0.7,16.4,8.4,17.2l4,0.4c0.8,0.5,0.6,3-0.3,3.4c-7.4-0.3-12.1-0.4-17.5-0.4
			c-5.9,0-10.6,0.3-16,0.4c-0.8-0.4-1.1-2.6-0.3-3.4l2.3-0.4c7.7-1.4,8-2.8,8-17.2v-49.6c0-14.5-1-16.8-8.1-17.4l-3.6-0.3
			c-0.8-0.5-0.6-3,0.3-3.4c6.7,0.1,11.4,0.4,17.4,0.4c5.4,0,10.1-0.1,16-0.4c0.8,0.4,1.1,2.9,0.3,3.4l-2.6,0.3
			c-8,0.8-8.3,2.9-8.3,17.4v15.8c0,4.3,0.3,4.4,6.9,4.4h39.4c6.6,0,6.9-0.1,6.9-4.4v-15.8c0-14.5-0.3-16.5-8.4-17.4l-2.6-0.3
			c-0.8-0.5-0.5-3,0.3-3.4c6.3,0.3,11,0.4,16.7,0.4c5.4,0,10.1-0.1,16.3-0.4c0.8,0.4,1.1,2.9,0.3,3.4l-2.9,0.3
			c-8,0.8-8.3,2.9-8.3,17.4v49.6c0,14.5,0.3,16.3,8.3,17.2l3.3,0.4c0.8,0.5,0.6,3-0.3,3.4c-6.6-0.3-11.3-0.4-16.7-0.4
			c-5.6,0-10.6,0.1-16.7,0.4c-0.8-0.4-1.1-2.6-0.3-3.4l2.6-0.4c8.4-1.4,8.4-2.8,8.4-17.2v-19.4c0-4.1-0.3-4.4-6.9-4.4H737.2z"/>
		<path style="clip-path:url(#SVGID_00000144332770068257576880000018166108662952150691_);" d="M805.4,168.3
			c0-23.2,17.4-41,41.4-41c26.9,0,40.3,19.4,40.3,39.9c0,23.5-17.9,40.6-40.3,40.6C821,207.7,805.4,189.3,805.4,168.3 M875.5,170.8
			c0-19.2-8.5-39.9-30.7-39.9c-12.1,0-27.8,8.3-27.8,33.7c0,17.2,8.4,39.5,31.3,39.5C862.3,204.1,875.5,193.7,875.5,170.8"/>
		<path style="clip-path:url(#SVGID_00000144332770068257576880000018166108662952150691_);" d="M908.2,188.5
			c0,12.2,0.2,13.7,7.7,14.5l3.1,0.3c0.7,0.6,0.5,2.6-0.2,2.9c-6.6-0.2-10.5-0.3-15.1-0.3c-4.9,0-9.1,0.1-14.2,0.3
			c-0.7-0.3-0.9-2.2-0.2-2.9l2.4-0.3c6.7-0.9,7-2.3,7-14.5v-42.9c0-9.9-0.2-11.9-5.5-12.4l-4.2-0.5c-0.8-0.7-0.7-2.4,0.2-2.9
			c6.2-0.8,13.4-0.9,23-0.9c9.6,0,16.9,1.3,22.3,4.7c5.3,3.4,9.3,9.4,9.3,17.4c0,10.7-6.6,16-11.6,18.5c-5.1,2.4-11.3,3.5-16,3.5
			c-0.8-0.3-0.8-2.1-0.1-2.3c12.6-2.3,17.1-9.4,17.1-19.5c0-11.3-6.6-18.6-18.7-18.6c-6.2,0-6.3,0.5-6.3,4.2V188.5z"/>
		<path style="clip-path:url(#SVGID_00000144332770068257576880000018166108662952150691_);" d="M956.5,146.6
			c0-12.2-0.2-14.1-7-14.6l-2.9-0.2c-0.7-0.5-0.5-2.6,0.2-2.9c5.7,0.2,9.4,0.3,14.6,0.3c4.5,0,8.5-0.1,13.5-0.3
			c0.7,0.3,0.9,2.4,0.2,2.9L973,132c-6.7,0.7-7,2.4-7,14.6V160c0,2.2,0.2,4.4,1.5,4.4c1,0,2.4-0.7,3.2-1.3c1.6-1.4,4.6-4.4,5.9-5.6
			l12.5-12.4c2.2-2.1,7.9-8,9.1-9.6c0.6-0.8,0.8-1.4,0.8-1.9c0-0.5-0.5-0.8-2-1.2l-3.1-0.7c-0.8-0.8-0.7-2.3,0.2-2.9
			c4.1,0.2,8.7,0.3,12.8,0.3c4.1,0,8-0.1,11.5-0.3c0.8,0.6,0.9,2.2,0.2,2.9c-3,0.2-7.5,1.4-10.8,3.3c-3.3,1.9-9.8,7.3-16.3,13.5
			l-10.5,9.9c-1.6,1.6-2.7,2.7-2.7,3.6c0,0.8,0.7,1.7,2.2,3.6c11,12.7,20,23.1,29.1,32.7c2.8,2.8,4.9,4.3,8.9,4.8l2.2,0.3
			c0.8,0.6,0.6,2.6-0.2,2.9c-3-0.2-6.2-0.4-11.7-0.4c-4.8,0-8.8,0.1-14.2,0.4c-0.8-0.2-1.2-2.2-0.5-2.9l2.7-0.5
			c1.6-0.2,2.8-0.6,2.8-1.2c0-0.7-0.8-1.6-1.6-2.7c-2.2-2.8-5.2-5.9-9.6-10.9l-9.3-10.5c-6.6-7.4-8.5-9.8-11.3-9.8
			c-1.7,0-2,1.5-2,5.6v15c0,12.2,0.2,13.8,6.7,14.5l3.1,0.3c0.7,0.5,0.5,2.6-0.2,2.9c-5.7-0.2-9.6-0.4-14.2-0.4
			c-4.8,0-8.7,0.1-13.5,0.4c-0.7-0.4-0.9-2.1-0.2-2.9l2.3-0.3c6.2-0.9,6.4-2.3,6.4-14.5V146.6z"/>
		<path style="clip-path:url(#SVGID_00000144332770068257576880000018166108662952150691_);" d="M1036.3,146.8
			c0-12.3-0.2-14.3-7.1-14.9l-2.9-0.2c-0.7-0.5-0.5-2.6,0.2-2.9c5.8,0.2,9.8,0.4,14.6,0.4c4.6,0,8.6-0.1,14.4-0.4
			c0.7,0.4,0.9,2.4,0.2,2.9l-2.9,0.2c-6.9,0.6-7.1,2.6-7.1,14.9v41.4c0,12.3,0.2,14,7.1,14.8l2.9,0.3c0.7,0.5,0.5,2.6-0.2,2.9
			c-5.8-0.2-9.8-0.4-14.4-0.4c-4.9,0-8.4,0.1-14.2,0.4c-0.7-0.4-0.9-2.2-0.2-2.9l2.5-0.3c6.9-0.8,7.1-2.4,7.1-14.8V146.8z"/>
		<path style="clip-path:url(#SVGID_00000144332770068257576880000018166108662952150691_);" d="M1136.8,186.1
			c0,3.5,0,17.3,0.4,20.3c-0.2,0.7-0.9,1.3-2.2,1.3c-1.4-2-4.8-6-14.9-17.5l-27-30.7c-3.1-3.6-11-13.1-13.5-15.7h-0.2
			c-0.5,1.4-0.6,4.1-0.6,7.5v25.3c0,5.5,0.1,20.6,2.1,24c0.7,1.3,3,2,5.9,2.2l3.6,0.4c0.7,0.9,0.6,2.3-0.2,2.9
			c-5.2-0.2-9.3-0.3-13.6-0.3c-4.9,0-8,0.1-12.1,0.3c-0.8-0.6-0.9-2.2-0.2-2.9l3.1-0.4c2.7-0.3,4.5-1,5.1-2.3
			c1.6-4.2,1.5-18.4,1.5-23.9v-33.6c0-3.3-0.1-5.7-2.6-8.4c-1.6-1.6-4.4-2.4-7.2-2.8l-2-0.2c-0.7-0.7-0.7-2.4,0.2-2.9
			c4.9,0.3,11,0.3,13.1,0.3c1.9,0,3.8-0.1,5.3-0.3c2.3,5.9,16,21.3,19.9,25.6l11.3,12.7c8,8.9,13.7,15.5,19.2,21h0.2
			c0.5-0.6,0.5-2.4,0.5-4.9v-24.9c0-5.5-0.1-20.6-2.3-24.1c-0.7-1-2.6-1.7-7.2-2.3l-2-0.2c-0.8-0.7-0.7-2.6,0.2-2.9
			c5.4,0.2,9.3,0.3,13.7,0.3c5,0,8-0.1,12-0.3c0.9,0.6,0.9,2.2,0.2,2.9l-1.6,0.2c-3.7,0.6-6,1.5-6.5,2.4c-2,4.2-1.7,18.6-1.7,23.9
			V186.1z"/>
		<path style="clip-path:url(#SVGID_00000144332770068257576880000018166108662952150691_);" d="M1167.4,207.7
			c-9.8,0-15.9-3-18.1-4.3c-1.4-2.6-2.9-10.8-3.1-16.3c0.6-0.8,2.3-1.1,2.8-0.3c1.7,5.9,6.5,17.3,20,17.3c9.8,0,14.5-6.4,14.5-13.4
			c0-5.1-1.1-10.8-9.5-16.3l-11-7.2c-5.8-3.8-12.6-10.5-12.6-20c0-11,8.6-20,23.7-20c3.6,0,7.8,0.7,10.8,1.5
			c1.5,0.5,3.1,0.7,4.1,0.7c1.1,2.8,2.1,9.3,2.1,14.2c-0.5,0.7-2.3,1-2.9,0.4c-1.5-5.6-4.6-13.1-15.8-13.1
			c-11.4,0-13.8,7.6-13.8,12.9c0,6.7,5.6,11.6,9.9,14.3l9.3,5.8c7.3,4.5,14.5,11.3,14.5,22.3C1192.1,199,1182.5,207.7,1167.4,207.7"
			/>
	</g>
</g>
</svg>
