<?xml version="1.0" encoding="UTF-8" standalone="no"?>
<!-- Created with Inkscape (http://www.inkscape.org/) -->

<svg
   width="263.97461mm"
   height="48.77594mm"
   viewBox="0 0 263.97461 48.77594"
   version="1.1"
   id="svg5"
   inkscape:version="1.1.2 (b8e25be833, 2022-02-05)"
   sodipodi:docname="MUD WTR.svg"
   xmlns:inkscape="http://www.inkscape.org/namespaces/inkscape"
   xmlns:sodipodi="http://sodipodi.sourceforge.net/DTD/sodipodi-0.dtd"
   xmlns="http://www.w3.org/2000/svg"
   xmlns:svg="http://www.w3.org/2000/svg">
  <sodipodi:namedview
     id="namedview7"
     pagecolor="#ffffff"
     bordercolor="#666666"
     borderopacity="1.0"
     inkscape:pageshadow="2"
     inkscape:pageopacity="0.0"
     inkscape:pagecheckerboard="0"
     inkscape:document-units="mm"
     showgrid="false"
     inkscape:zoom="0.64052329"
     inkscape:cx="556.57617"
     inkscape:cy="220.13251"
     inkscape:window-width="1920"
     inkscape:window-height="1017"
     inkscape:window-x="-8"
     inkscape:window-y="-8"
     inkscape:window-maximized="1"
     inkscape:current-layer="layer1" />
  <defs
     id="defs2" />
  <g
     inkscape:label="Layer 1"
     inkscape:groupmode="layer"
     id="layer1"
     transform="translate(42.177804,-90.03345)">
    <path
       id="path824"
       style="stroke-width:0.264583"
       d="m -40.590304,130.2607 c -1.037167,0 -1.5875,-0.31221 -1.5875,-0.86519 0,-0.55298 0.346604,-0.88635 1.058333,-0.88635 a 3.857625,3.857625 0 0 0 2.203979,-0.47361 c 0.841375,-0.61118 1.344083,-1.65364 1.49225,-3.15647 0.03175,-0.34661 0.07144,-0.88107 0.111125,-1.5875 0.03969,-0.70644 0.0926,-1.54782 0.148167,-2.50032 0.05556,-0.9525 0.116416,-2.00554 0.164041,-3.175 0.04763,-1.16946 0.100542,-2.33627 0.161396,-3.55864 0.06085,-1.22238 0.108479,-2.43946 0.15875,-3.66977 0.05027,-1.23032 0.0926,-2.39713 0.127,-3.50838 0.08202,-2.75431 0.127,-4.51908 0.127,-5.25198 a 6.9003333,6.9003333 0 0 0 -0.166687,-1.711853 2.8680833,2.8680833 0 0 0 -0.455084,-1.026583 2.6458333,2.6458333 0 0 0 -1.754187,-0.907521 c -1.426104,-0.198437 -2.135188,-0.508 -2.135188,-0.92075 a 0.83608333,0.83608333 0 0 1 0.306917,-0.66675 1.2144375,1.2144375 0 0 1 0.809625,-0.264583 l 3.907896,0.343958 2.201333,-0.0979 a 1.222375,1.222375 0 0 1 0.997479,0.505355 9.8795417,9.8795417 0 0 1 0.896938,1.51077 l 12.043834,24.958147 q 0.425979,-0.97631 1.103312,-2.56116 0.677333,-1.58486 1.529292,-3.51632 0.830791,-1.94204 1.780646,-4.10368 l 1.867958,-4.30477 1.762125,-4.10898 q 0.851958,-1.97115 1.505479,-3.49779 c 0.4286246,-1.0213 0.7937496,-1.852092 1.0583326,-2.502967 0.264584,-0.650875 0.478896,-1.100667 0.590021,-1.381125 a 1.778,1.778 0 0 1 0.632354,-0.762 1.8520833,1.8520833 0 0 1 1.103313,-0.346605 l 2.341562,0.0979 2.9845,-0.219604 c 1.240896,0 1.852084,0.304271 1.852084,0.92075 0,0.296334 -0.264584,0.500063 -0.820209,0.605896 l -1.394354,0.28575 a 4.4979167,4.4979167 0 0 0 -1.058333,0.375708 2.1669375,2.1669375 0 0 0 -1.143,2.066397 l 1.272646,24.36283 q 0.198437,3.20675 2.413,3.63009 a 7.5035833,7.5035833 0 0 0 1.217083,0.10054 c 0.717021,0 1.058333,0.29633 1.058333,0.88635 0,0.59002 -0.529166,0.88106 -1.563687,0.88106 a 8.0195208,8.0195208 0 0 1 -1.058333,-0.0608 l -0.899584,-0.11377 a 16.367125,16.367125 0 0 0 -2.439458,-0.19844 l -5.291667,0.37571 c -1.1033116,0 -1.6166036,-0.30692 -1.6166036,-0.9181 0,-0.5133 0.386292,-0.77259 1.1694576,-0.77259 a 5.5033333,5.5033333 0 0 0 1.701271,-0.18785 1.4578542,1.4578542 0 0 0 0.79375,-0.58473 c 0.232834,-0.39423 0.346604,-1.33879 0.346604,-2.81517 v -2.33627 q 0,-1.69069 -0.246062,-6.87916 -0.246063,-5.18848 -0.34925,-7.38982 -0.201083,-4.67518 -0.373063,-7.09083 l -11.7686656,26.9875 c -0.431271,0.97367 -0.820208,1.46579 -1.169458,1.46579 a 0.68527083,0.68527083 0 0 1 -0.582084,-0.36512 11.951229,11.951229 0 0 1 -0.635,-1.15623 l -12.046479,-24.77559 q -0.949855,12.67355 -0.947209,23.17486 c 0,1.35466 1.100667,2.03729 3.304646,2.03729 0.595313,0 0.894292,0.24342 0.894292,0.72231 0,0.61119 -0.552979,0.92075 -1.613959,0.92075 l -4.034895,-0.37571 a 15.046854,15.046854 0 0 0 -2.38125,0.18786 10.583333,10.583333 0 0 1 -1.666875,0.15081 z M 16.967154,97.785742 15.765946,97.6852 q -1.513417,0 -2.06375,1.653646 -0.468313,1.473734 -0.468313,5.080004 v 12.30312 a 17.584208,17.584208 0 0 0 0.494771,4.95829 9.7737083,9.7737083 0 0 0 1.394354,2.75961 9.318625,9.318625 0 0 0 7.712605,3.85762 15.155333,15.155333 0 0 0 5.101166,-0.73819 7.2098958,7.2098958 0 0 0 3.214688,-2.20397 q 2.201333,-2.68288 2.201333,-8.76036 l -0.05821,-12.17083 c 0,-2.43946 -0.121709,-4.03754 -0.354542,-4.794253 a 3.3099375,3.3099375 0 0 0 -0.83079,-1.54252 1.8758958,1.8758958 0 0 0 -1.25677,-0.407459 l -1.217084,0.100542 c -0.600604,0 -0.899583,-0.243417 -0.899583,-0.722313 0,-0.616479 0.457729,-0.92075 1.367896,-0.92075 a 12.964583,12.964583 0 0 1 2.38125,0.198438 11.1125,11.1125 0 0 0 2.137833,0.198437 l 4.108979,-0.396875 c 1.058334,0 1.5875,0.304271 1.5875,0.92075 0,0.478896 -0.298979,0.722313 -0.899583,0.722313 L 38.255529,97.6852 c -1.008062,0 -1.653646,0.550333 -2.010833,1.653646 -0.288396,0.963084 -0.425979,2.645834 -0.425979,5.080004 l -0.04762,13.43818 q 0,5.55625 -3.537479,9.0805 -3.53748,3.52425 -9.477375,3.55865 -6.439959,0 -10.175875,-3.55865 -3.8152924,-3.683 -3.8073554,-10.22614 v -12.28196 q 0,-3.60627 -0.375708,-4.762501 A 3.3893125,3.3893125 0 0 0 7.5268206,98.095304 1.9499792,1.9499792 0 0 0 6.2409456,97.6852 l -1.217083,0.100542 c -0.595313,0 -0.899584,-0.243417 -0.899584,-0.722313 0,-0.616479 0.463021,-0.92075 1.383771,-0.92075 a 18.417646,18.417646 0 0 1 2.69875,0.198438 18.481146,18.481146 0 0 0 2.7569584,0.198437 19.219333,19.219333 0 0 0 2.809875,-0.198437 18.560521,18.560521 0 0 1 2.709334,-0.198438 c 0.910166,0 1.359958,0.304271 1.359958,0.92075 0.03969,0.478896 -0.280458,0.722313 -0.875771,0.722313 z m 70.061662,-6.683375 a 3.9422917,3.9422917 0 0 1 -0.22754,-0.87048 c 0,-0.132291 0.127,-0.198437 0.38629,-0.198437 a 5.1884792,5.1884792 0 0 1 1.50548,0.224896 c 0.51594,0.182562 0.82021,0.386291 0.91811,0.624416 l 17.819694,46.857708 a 3.5427708,3.5427708 0 0 1 0.22489,0.87048 c 0,0.13229 -0.127,0.19844 -0.37306,0.19844 a 6.0219167,6.0219167 0 0 1 -0.75671,-0.0476 3.7517917,3.7517917 0 0 1 -0.73819,-0.17727 c -0.55033,-0.16669 -0.84137,-0.37571 -0.94191,-0.62177 z m 69.977004,5.040312 q 1.56369,0 1.56369,0.881063 0,0.881062 -1.03981,0.883708 a 2.7357917,2.7357917 0 0 0 -1.89442,0.550333 8.73125,8.73125 0 0 0 -1.81504,3.174997 l -10.67594,28.02996 c -0.41275,1.02659 -0.81491,1.54252 -1.19591,1.54252 -0.4789,0 -0.93134,-0.58737 -1.34409,-1.76741 l -5.87375,-17.29582 -7.31043,17.52071 c -0.42069,1.02659 -0.79375,1.54252 -1.10332,1.54252 -0.42862,0 -0.87577,-0.58737 -1.34408,-1.76741 L 113.3972,101.74126 a 13.229167,13.229167 0 0 0 -1.54252,-2.936873 2.5347083,2.5347083 0 0 0 -1.97115,-0.896937 q -1.13506,0 -1.13506,-0.894292 a 0.72495833,0.72495833 0 0 1 0.4154,-0.619125 1.9552708,1.9552708 0 0 1 1.10066,-0.264583 8.2682292,8.2682292 0 0 1 1.14565,0.06085 c 0.29898,0.03969 0.59531,0.08731 0.89958,0.137583 a 15.610417,15.610417 0 0 0 2.48444,0.198438 l 4.30742,-0.396875 c 1.10331,0 1.61395,0.280458 1.61395,0.844021 a 0.85195833,0.85195833 0 0 1 -0.26458,0.62177 1.3229167,1.3229167 0 0 1 -0.93662,0.264584 5.6885417,5.6885417 0 0 0 -1.10067,0.08996 1.8018125,1.8018125 0 0 0 -0.71173,0.264583 0.9286875,0.9286875 0 0 0 -0.39687,0.849313 10.31875,10.31875 0 0 0 0.99747,3.630083 l 9.03023,21.67467 6.37646,-15.42521 -2.39712,-6.94796 c -0.55298,-1.60866 -1.05834,-2.632604 -1.57163,-3.085041 a 3.8391042,3.8391042 0 0 0 -2.46327,-1.008063 c -0.89164,0 -1.34408,-0.325437 -1.34408,-0.904875 a 0.75141667,0.75141667 0 0 1 0.38894,-0.60325 1.9605625,1.9605625 0 0 1 1.10331,-0.264583 8.2020833,8.2020833 0 0 1 1.14035,0.06085 c 0.29634,0.03969 0.6059,0.08731 0.92075,0.137583 a 15.404042,15.404042 0 0 0 2.46856,0.198438 l 5.51921,-0.383646 c 1.10067,0 1.61925,0.264583 1.61925,0.820208 0,0.555625 -0.45243,0.822854 -1.34408,0.822854 q -2.58233,0 -2.59027,1.613959 a 14.515042,14.515042 0 0 0 0.99219,4.331226 l 6.99823,20.42848 7.67291,-21.3704 a 10.334625,10.334625 0 0 0 0.70644,-2.95539 q 0,-2.037291 -3.08504,-2.037291 -1.05834,0 -1.05834,-0.822854 c 0,-0.545042 0.55034,-0.820209 1.61396,-0.820209 a 9.4006458,9.4006458 0 0 1 1.80711,0.198438 12.935479,12.935479 0 0 0 2.47385,0.198437 z M 169.2772,130.2607 c -1.10331,0 -1.6219,-0.30692 -1.6219,-0.9181 q 0,-0.72232 0.89959,-0.72232 l 1.21708,0.12171 c 0.99748,0 1.65365,-0.55298 1.98967,-1.65364 q 0.45243,-1.42082 0.44979,-5.08 V 98.725012 h -0.67204 a 21.624396,21.624396 0 0 0 -6.94002,0.915459 3.9078958,3.9078958 0 0 0 -2.44211,2.201329 c -0.31485,0.762 -0.65087,1.1483 -0.99748,1.1483 -0.47889,0 -0.72231,-0.2884 -0.72231,-0.84932 a 1.9579167,1.9579167 0 0 1 0.11113,-0.55033 c 0.0767,-0.21696 0.16668,-0.4736 0.26458,-0.77258 a 9.6149583,9.6149583 0 0 0 0.4736,-2.487087 5.2440417,5.2440417 0 0 1 0.28575,-1.725083 0.64822917,0.64822917 0 0 1 0.58473,-0.433917 3.0136042,3.0136042 0 0 1 0.67204,0.06085 c 0.19844,0.03704 0.48419,0.08731 0.87048,0.137584 a 29.715354,29.715354 0 0 0 3.75709,0.198437 h 15.77445 a 12.893146,12.893146 0 0 0 2.68817,-0.232833 6.0139792,6.0139792 0 0 1 1.2065,-0.198438 c 0.55298,0 0.82286,0.264584 0.82286,0.772584 a 3.6803542,3.6803542 0 0 1 -0.14817,0.941916 13.324417,13.324417 0 0 0 -0.48683,2.116667 c -0.0767,0.59003 -0.14288,1.05834 -0.20903,1.44463 a 5.064125,5.064125 0 0 1 -0.22489,0.88106 c -0.13229,0.36248 -0.33073,0.55034 -0.60061,0.55034 a 0.48947917,0.48947917 0 0 1 -0.508,-0.28575 5.8208333,5.8208333 0 0 1 -0.23547,-1.10332 3.8391042,3.8391042 0 0 0 -0.43657,-1.35731 2.1854583,2.1854583 0 0 0 -0.79375,-0.820212 5.4980417,5.4980417 0 0 0 -2.83633,-0.550334 h -5.33929 v 23.267466 q 0,3.76237 0.33602,4.84187 a 3.175,3.175 0 0 0 0.82021,1.49225 1.8970625,1.8970625 0 0 0 1.27793,0.41011 l 1.19592,-0.12171 c 0.59531,0 0.89958,0.24077 0.89958,0.72231 0,0.61119 -0.55033,0.9181 -1.5875,0.9181 a 11.033125,11.033125 0 0 1 -1.74625,-0.14816 17.266708,17.266708 0 0 0 -5.11439,-0.15875 25.262417,25.262417 0 0 1 -2.93423,0.30956 z m 23.09038,-34.118248 c -0.91017,0 -1.36787,0.304395 -1.36787,0.920874 0,0.478896 0.29869,0.722434 0.894,0.722434 l 1.22266,-0.100769 a 1.8811875,1.8811875 0 0 1 1.25678,0.407728 3.3099375,3.3099375 0 0 1 0.83044,1.542542 c 0.23106,0.756709 0.34675,2.354559 0.34675,4.794019 v 17.57929 c 0,2.43416 -0.13749,4.13259 -0.42324,5.07979 -0.35719,1.10067 -1.01854,1.65365 -2.01073,1.65365 l -1.22266,-0.12195 c -0.59619,0 -0.894,0.24089 -0.894,0.72243 0,0.61118 0.51318,0.91829 1.61385,0.91829 a 24.370771,24.370771 0 0 0 2.95021,-0.30954 17.266708,17.266708 0 0 1 5.11442,0.15865 10.940521,10.940521 0 0 0 1.74046,0.14831 c 1.03716,0 1.5875,-0.3071 1.5875,-0.91829 0,-0.48154 -0.29781,-0.72244 -0.894,-0.72244 l -1.19321,0.12196 a 1.9129375,1.9129375 0 0 1 -1.28623,-0.41031 3.2199791,3.2199791 0 0 1 -0.8201,-1.49242 c -0.2196,-0.72231 -0.3359,-2.33596 -0.3359,-4.84157 v -6.73912 c 0.79904,-0.0714 1.70382,-0.0713 2.80448,-0.0713 a 4.0957499,4.0957499 0 0 1 2.38125,0.55035 7.1437499,7.1437499 0 0 1 1.60352,1.87844 l 6.26008,10.03298 c 0.92781,1.49225 1.96409,2.23862 3.10886,2.23862 h 4.78885 c 0.91546,0 1.37305,-0.2328 1.37305,-0.70641 0,-0.4736 -0.42574,-0.75413 -1.26711,-0.83613 a 8.2311874,8.2311874 0 0 1 -1.19579,-0.19844 c -1.09715,-0.28398 -2.10185,-1.09814 -3.01377,-2.44222 l -8.09615,-11.73934 a 12.170833,12.170833 0 0 0 2.5399,-1.69343 c 2.36892,-2.08492 3.5579,-4.57098 3.5667,-7.45846 a 7.4533124,7.4533124 0 0 0 -3.16208,-6.270941 11.289771,11.289771 0 0 0 -3.74654,-1.78077 15.46225,15.46225 0 0 0 -4.1274,-0.616497 20.372917,20.372917 0 0 0 -3.175,0.198437 16.816917,16.816917 0 0 1 -5.1511,0 16.462375,16.462375 0 0 0 -2.60088,-0.198437 z m 9.09041,1.718241 a 3.84175,3.84175 0 0 1 0.47955,0.0016 8.0459791,8.0459791 0 0 1 5.82084,2.203997 c 1.60337,1.53458 2.41277,3.65146 2.41277,6.29729 0,2.20398 -0.65078,3.95029 -1.94459,5.22294 a 5.5747708,5.5747708 0 0 1 -4.07727,1.65364 h -1.57974 a 29.125333,29.125333 0 0 1 -3.11144,-0.17724 l 0.0109,-13.658087 a 1.2620625,1.2620625 0 0 1 0.60048,-1.195793 3.84175,3.84175 0 0 1 1.38855,-0.348297 z M 58.9194,95.917659 a 42.986854,42.986854 0 0 0 -6.064228,0.373102 31.89552,31.89552 0 0 1 -4.381646,0.248566 10.543646,10.543646 0 0 1 -2.015897,-0.198438 12.850812,12.850812 0 0 0 -2.38125,-0.198437 c -0.915459,0 -1.373042,0.304395 -1.373042,0.920874 0,0.478896 0.303858,0.722434 0.89917,0.722434 l 1.217496,-0.100769 a 1.8520833,1.8520833 0 0 1 1.256771,0.407728 3.317875,3.317875 0 0 1 0.836123,1.542542 c 0.231071,0.756709 0.346234,2.354559 0.346234,4.794019 v 17.57929 c -0.0053,2.43946 -0.146299,4.13258 -0.42323,5.07979 -0.365125,1.10067 -1.018418,1.65365 -2.015898,1.65365 l -1.217496,-0.12195 c -0.595312,0 -0.89917,0.24088 -0.89917,0.72243 0,0.61118 0.518355,0.91829 1.619022,0.91829 l 4.275706,-0.37569 c 1.074209,0 2.820522,0.10861 5.222939,0.32557 1.29822,0.11641 2.635295,0.17415 4.011123,0.17415 5.686782,-0.004 10.300374,-1.69666 13.840499,-5.0798 a 16.211021,16.211021 0 0 0 5.103564,-12.22096 c -0.0018,-5.15055 -1.735709,-9.31364 -5.201748,-12.48864 A 17.028583,17.028583 0 0 0 65.740689,97.134639 20.142729,20.142729 0 0 0 58.9194,95.917659 Z m -1.724959,1.986957 c 4.580821,0.0053 8.220483,1.442247 10.91923,4.310334 a 14.50975,14.50975 0 0 1 3.101102,5.1356 18.25625,18.25625 0 0 1 1.103291,6.29677 20.22475,20.22475 0 0 1 -0.550352,5.29167 c -1.033639,3.85233 -3.263008,6.53519 -6.688481,8.0486 a 15.467542,15.467542 0 0 1 -6.249747,1.42111 15.848542,15.848542 0 0 1 -7.437273,-1.72806 c -0.149931,-2.57175 -0.224793,-5.32649 -0.224793,-8.26513 l -0.02429,-15.89619 c 0,-0.56621 0.02945,-1.14062 0.02945,-1.73064 a 3.4925,3.4925 0 0 1 0.396875,-1.587502 c 0.47625,-0.864304 2.351203,-1.296562 5.62498,-1.296562 z" />
  </g>
</svg>
