<svg fill="#FFFFFF" xmlns="http://www.w3.org/2000/svg" xmlns:xlink="http://www.w3.org/1999/xlink" version="1.1" x="0px" y="0px" viewBox="0 0 100 100" enable-background="new 0 0 100 100" xml:space="preserve"><path d="M32.983,83.943c-0.136-0.238-0.262-0.463-0.381-0.676c-0.039-0.877,0.363-1.422,0.373-1.442  c0.504-1.033,4.769-3.798,4.769-3.798c4.416-3.112,4.455-6.067,4.455-6.067c-1.062,2.653-4.484,4.242-4.484,4.242  c-1.414,0.721-4.11,2.207-4.11,2.207c-2.886,1.631-3.267,0.088-3.267,0.088c-0.164-1.411,3.578-3.099,4.117-3.435  c0.539-0.34,2.541-1.613,2.541-1.613c3.407-2.315,3.615-5,3.615-5c-0.092,1.048-4.933,3.824-4.933,3.824  c-0.249,0.135-2.165,0.83-2.165,0.83c-0.782,0.209-2.932,1.094-2.932,1.094c-2.355,0.598-2.158-1.064-2.158-1.064  c0.053-0.979,2.274-2.205,2.657-2.291c0.019-0.004,0.049-0.012,0.08-0.023c0.561-0.185,2.719-1.178,2.955-1.303  c0.251-0.137,1.393-0.599,1.393-0.599c1.113-0.366,4.684-2.235,5.053-2.463c0.367-0.228,1.796-0.896,1.796-0.896  c-0.248,0.047-4.05,0.383-4.05,0.383c-4.032,0.346-6.006,1.238-6.006,1.238c-2.284,0.924-2.843,1.385-2.843,1.385  c-1.452,0.789-1.743,0.791-1.743,0.791c-1.304,0.215-1.178-0.811-1.178-0.811c0.113-0.967,2.291-2.15,2.629-2.284  c0.34-0.132,2.719-1.317,2.944-1.444c0.223-0.125,1.215-0.601,1.215-0.601c1.668-0.649,4.712-4.548,5.694-5.252  c0.875-0.629,1.92-0.915,2.136-0.969c-0.974,0.245-5.563-0.147-5.563-0.147c-4.545-0.283-7.517,0.965-7.517,0.965  c-3.125,1.037-3.363-0.23-3.363-0.23c-0.299-1.283,1.546-2.305,1.546-2.305c1.42-0.896,4.458-1.73,4.458-1.73  c1.305-0.311,3.509-1.5,3.509-1.5c3.58-2.221,4.217-4.832,4.217-4.832c-1.63,2.213-3.193,2.541-3.193,2.541  c-1.469,0.445-3.895,0.51-3.895,0.51c-2.97-0.091-4.942,1.381-4.942,1.381c-0.979,0.617-2.015,1.049-2.015,1.049  c-1.857,0.414-1.368-1.247-1.368-1.247c0.856-1.31,5.051-2.083,5.051-2.083c1.788-0.25,3.06-1.248,3.06-1.248  c1.468-1.114,2.03-3.586,2.03-3.586c0.274-1.308,1.221-1.74,1.221-1.74c0.795-0.359,2.24,0.079,2.24,0.079  c-1.7-1.378-3.236-0.388-3.236-0.388c-0.993,0.854-1.579,2.196-1.579,2.196c-1.241,1.864-4.033,1.98-4.033,1.98  c-0.992,0.184-5.258,0.63-5.258,0.63c0.481-1.019,3.685-2.747,4.116-2.964c0.429-0.218,2.664-1.304,2.664-1.304  c2.16-1.528,5.499-1.375,5.499-1.375c0.995,0.108,3.269-0.172,3.269-0.172c-0.774-0.059-2.116-0.351-2.116-0.351  c-0.894-0.253-3.13-0.422-3.13-0.422c0.108-0.032,1.32-0.167,1.832-0.117c0.509,0.048,1.804,0.094,1.804,0.094  c-2.018-1.369-4.494-1.756-5.187-1.836c-0.696-0.081-2.566-0.389-2.566-0.389c-3.112-0.456-5.214,0.297-5.214,0.297  c-0.694,0.212-1.751,0.182-1.751,0.182c0.171-1.073,3.549-3.96,5.49-4.956c1.943-0.996,4.382-3.425,4.382-3.425  c1.078-1.347,4.076-3.188,4.076-3.188c-1.674,0.247-5.623,2.405-6.074,2.743c-0.45,0.341-1.626,1.077-1.957,1.236  c-0.332,0.157-3.451,1.686-3.644,1.919c-0.191,0.233-2.249,1.234-2.249,1.234c-1.019,0.483-0.875-0.288-0.875-0.288  c0.81-2.141,3.707-2.873,3.707-2.873c1.666-0.561,4.064-1.872,4.455-2.222c0.389-0.352,2.075-1.708,2.612-1.958  c0.535-0.25,1.878-0.919,2.151-1.264c0.274-0.345,1.102-0.887,1.102-0.887c-0.839,0.02-2.621,0.969-2.621,0.969  c-0.517,0.213-1.481,0.884-1.481,0.884c-0.415,0.359-2.519,0.912-2.519,0.912c-1.894,0.484-3.438,1.448-3.438,1.448  c-0.52,0.303-1.437,0.639-1.437,0.639c-1.21,0.337-2.446,0.391-2.446,0.391c0.286-0.406,1.961-1.41,2.407-1.573  c0.447-0.165,3.767-1.899,4.242-2.16c0.474-0.26,1.834-0.963,1.834-0.963c2.481-1.334,4.151-4.085,4.195-4.329  c0.043-0.248,0.389-1.024,0.389-1.024c-0.9,0.302-1.341,1.34-1.341,1.34c-0.22,0.242-1.374,1.145-1.374,1.145  c-2.136,1.695-3.996,1.909-3.996,1.909c-1.815,0.258-3.645,1.337-3.645,1.337c-1.127,0.605-2.176,0.515-2.176,0.515  c1.132-0.402,5.181-2.911,5.415-3.098c0.236-0.187,2.135-1.317,2.135-1.317c1.046-0.491,2.938-1.648,2.938-1.648  c0.855-0.55,1.839-0.76,1.839-0.76c-1.283-0.195-3.023,0.887-3.023,0.887c-0.604,0.416-2.419,0.674-2.419,0.674  c-2.773,0.462-4.078,1.062-4.078,1.062c-0.677,0.263-3.196,1.375-3.196,1.375c0.145-0.19,1.857-1.086,2.573-1.508  c0.718-0.42,1.976-1.268,1.976-1.268c1.68-1.091,3.296-3.067,3.296-3.067c0.35-0.573,0.901-1.352,0.901-1.352  c1.214-1.765,1.056-3.438,1.056-3.438c-0.087-0.294-0.141-1.531-0.141-1.531c-0.095,3.059-2.578,5.153-2.578,5.153  c-2.896,2.654-6.01,3.336-6.01,3.336c5.626-3.162,7.094-6.491,7.339-7.033c0.242-0.54,0.669-1.922,0.669-1.922  c-0.437,0.192-2.1,2.211-2.1,2.211c-0.178,0.462-2.859,2.003-2.859,2.003c-1.386,0.711-3.799,2.462-3.799,2.462  c0.377-0.581,3.762-3.355,3.762-3.355c1.674-1.498,3.093-5.658,3.084-5.975c-0.008-0.319,0.218-1.203,0.218-1.203  c-0.539,0.339-1.584,2.083-1.584,2.083c-0.091,0.465-1.059,1.603-1.059,1.603c-0.751,1.072-3.199,2.806-3.199,2.806  c0.06-0.281,2.784-3.028,2.784-3.028c1.029-1.215,1.769-3.101,1.769-3.101c0.03-0.388,1.042-1.949,1.042-1.949  c-1.086,0.36-2.242,2.604-2.242,2.604c-0.186,0.639-1.229,1.333-1.229,1.333c-0.197,0.118-1.884,1.096-1.884,1.096  c0.064-0.281,1.932-2.188,1.932-2.188c0.962-1.253,0.693-2.425,0.693-2.425c-0.07-0.328-0.149-1.266-0.149-1.266  c-0.277,0.434-0.682,1.693-0.682,1.693c-0.293,1.051-1.613,2.178-1.613,2.178s0.099-0.887,0.297-1.809  c0.455-2.102,1.234-3.522,1.234-3.522c0.352-0.864,1.938-1.489,1.938-1.489c0.663-0.317,1.991-0.546,2.44-0.507  c0.324,0.03,1.215-0.103,1.685-0.178c0.113-0.009,0.217-0.023,0.301-0.05c0,0-3.174-0.451-3.535-0.482  c-0.364-0.032-1.58-0.065-2.076,0.469c0,0,0.118-0.867,0.04-1.125c0,0-0.515,0.862-0.96,1.491c-0.445,0.629-2.102,2.284-2.964,4.43  L20.86,6.354l0.25,1.759c0,0-1.721-1.95-2.273-3.547c0,0,0.653-2.035,0.431-2.532c0,0-0.584,1.801-0.9,2.391  c0,0-0.624,0.965,0.871,3.336c0,0,1.761,2.08,1.956,2.726c0,0-1.544-1.367-2.232-2.007c-0.688-0.637-1.764-1.159-2.117-3.028  c0,0,0.267-2.162,0.129-2.622c0,0-0.34,1.862-0.61,2.295c0,0-0.683,1.563,1.179,3.562c0,0,0.962,1.016,1.649,1.962  c0,0,1.261,1.678,1.353,2.807c0,0-2.368-1.847-2.624-2.521c-0.256-0.677-0.612-1.523-0.682-1.754  c-0.069-0.229-1.228-3.548-2.879-3.7c0,0,0.928,1.075,1.124,1.72c0,0,0.514,1.202,0.792,1.62c0,0,0.383,0.938,0.482,1.763  c0,0,0.204,2.501,2.178,3.711c0,0,1.23,0.733,1.61,1.823c0,0-2.136-0.911-2.832-2.207c0,0-0.531-1.095-1.398-1.637  c0,0-0.952-0.817-0.33-2.914c0.042-0.145,0.042-0.145,0.042-0.145s-1.21,1.1-0.822,3.044c0,0,0.251,0.828,0.783,1.421  c0,0,1.422,1.881,1.76,2.331c0.338,0.45,1.774,1.873,1.984,3.066c0,0-2.419-2.181-3.24-2.737c0,0-1.298-0.964-1.615-2.175  c0,0,0.082-1.883-0.291-2.623c0,0-0.047,1.672-0.301,2.653c0,0-0.321,2.258,1.483,3.571c0,0,3.48,3.124,3.66,3.919  c0,0-5.989-5.316-13.311-5.711c0,0,9.848,4.078,13.115,9.725c0,0-5.333-1.986-7.742-2.244c0,0-5.324-1.407-7.085-2.409  c1.555,1.099,6.771,4.672,9.994,5.483c0,0,4.232,1.613,5.025,3.067c0,0-4.658-0.92-5.337-1.066  c-0.679-0.149-5.356-1.133-6.721-1.212c0,0-3.802-0.897-4.776-2.013c0,0,1.275,2.578,7.48,3.947  c0.355,0.079,0.355,0.079,0.355,0.079s4.556,0.975,8.631,3.483c0,0,0.787,0.256-0.17,0.828c0,0-0.92-0.004-2.066-0.292  c0,0-3.976-0.773-6.499-0.01c0,0-5.344,0.773-6.432,0.68c0,0,8.334,0.933,10.632,1.297c0,0,4.098,0.241,5.073,2.064  c0,0,0.287,0.478-0.358,0.674c0,0-2.218-0.317-4.019-0.901c-1.8-0.584-4.887-0.99-5.697-1.097c-0.653-0.089-2.664-0.407-3.668-0.749  c1.246,0.584,4.468,2.038,6.442,2.449c0,0,2.308,0.853,3.08,1.538c0,0,4.148,2.273,4.699,2.46c0,0-5.687,0.805-6.606,0.802  c0,0-2.488-1.929-3.528-2.321c0,0-2.93-1.816-3.664-2.51c0.598,0.605,4.062,4.091,5.71,5.071c0,0-2.906-0.038-3.82-0.256  c0,0-2.098-0.635-2.85-0.549c0,0,2.779,0.783,3.539,1.189c0,0,1.699,1.18,4.637,0.853c0,0,4.773,3.638,5.168,4.013  c0,0,3.116,2.587,3.012,3.184c0,0-1.452,0.793-3.993-0.131c0,0-3.052-0.984-4.288-1.104c0,0-6.54-0.841-7.496-1.896  c0,0,1.846,2.124,4.8,2.784c0,0,3.563,1.04,3.977,1.479c0,0,3.55,1.468,4.528,1.666c0,0,2.657,0.606,2.782,1.488  c0,0-0.167,0.615-2.523,0.764c0,0-2.971-0.019-4.529,0.666c-1.559,0.684-4.496,1.01-5.785,1.188c0,0,2.199,0.958,4.057,1.03  c0,0,3.479,0.289,5.45,0.044c0,0,4.189,0.072,4.683,0.771c0,0,0.443,0.994-1.376,1.051c0,0-2.631-0.756-3.512-0.633  c-0.879,0.127-3.435,0.549-4.011,0.51C13.859,60.871,10.92,60.49,10.208,60c0,0,1.571,1.923,4.894,2.4c0,0,1.081,0.307,1.328,0.658  c0,0,3.99,1.051,6.158,0.746c0,0,1.839,0.006,1.215,1.682c0,0-0.366,0.886-2.859,0.582c-2.494-0.303-4.196-0.566-5.141-0.42  c-0.945,0.146-3.024-0.426-3.485-0.779c0,0,1.435,1.472,1.89,2.039c0,0,1.676,2.035,4.224,1.828c0,0,2.648,0.115,3.136,0.32  c0.484,0.207,2.431,0.239,2.854,0.336c0.424,0.094,1.05,0.482,1.095,1.045c0.03,0.336-0.034,0.846-0.708,1.168  c0,0-1.991,0.885-2.81,1.205c-0.823,0.316-3.39,1.166-3.991,1.278c-0.603,0.113-3.513,0.992-3.882,1.179  c0,0,1.509,0.317,2.138,0.764c0,0,0.805,1.025,6.344-0.512c0,0,3.05-1.349,4.085-0.953c0,0,1.576,0.295,0.19,2.482  c0,0-0.588,1.1-3.406,1.811c0,0-2.492,0.4-2.815,0.498c-0.323,0.101-3.468,0.205-4.633,0.558c0,0,2.314,0.642,2.793,1.062  c0,0,2.495,1.008,5.78-0.27c0,0,3.797-1.219,4.699-0.576c0,0,0.556,0.443-0.069,0.941c0,0-2.173,1.218-3.29,2.195  c-1.117,0.972-3.096,1.431-4.129,2.45c-1.032,1.015-2.454,2.153-2.712,2.232c0,0,3.018-0.984,3.557-1.078  c0.538-0.092,3.027-1.198,3.35-1.299l2.134-0.646c0.646-0.197,2.561-0.636,3.034-0.705c0.296-0.049,0.758-0.17,1.122-0.188  c2.185,3.86,6.993,11.284,13.854,16.012h1.126C40.292,95.547,35.287,87.973,32.983,83.943z M15.234,43.863  c0,0,4.656,0.229,5.624,2.885C20.858,46.748,17.389,45.3,15.234,43.863z M22.667,43.321c0.123-0.712,1.159-1.251,1.159-1.251  c0.236,0.153,3.477,0.072,4.263-0.054c0.788-0.125,3.165-0.208,3.165-0.208c-4.919,0.363-8.898,2.47-8.897,2.471  C22.363,44.051,22.667,43.321,22.667,43.321z M25.873,63.557c0.045-0.841,2.12-1.433,2.12-1.433  c0.581-0.174,3.187-1.115,4.023-1.331c0.835-0.213,5.006-1.439,5.006-1.439c-1.684,1.261-4.875,2.49-4.875,2.49  c-2.083,0.93-4.961,1.84-4.961,1.84C25.858,64.01,25.872,63.557,25.873,63.557z M94.06,79.61c-1.42-0.386-4.964-0.616-4.964-0.616  c0.173-0.053,2.087-0.284,2.899-0.214c0.805,0.065,2.86,0.116,2.86,0.116c-3.221-2.135-7.151-2.705-8.251-2.821  c-1.102-0.116-4.069-0.57-4.069-0.57c-4.934-0.667-8.252,0.561-8.252,0.561c-1.095,0.346-2.771,0.317-2.771,0.317  c0.251-1.701,5.556-6.332,8.613-7.945c3.056-1.613,6.881-5.5,6.881-5.5c1.682-2.151,6.399-5.118,6.399-5.118  c-2.649,0.416-8.865,3.904-9.572,4.451c-0.708,0.545-2.558,1.729-3.079,1.987c-0.521,0.257-5.438,2.731-5.736,3.104  c-0.3,0.372-3.541,1.995-3.541,1.995c-1.604,0.784-1.389-0.441-1.389-0.441c1.243-3.403,5.817-4.613,5.817-4.613  c2.63-0.917,6.407-3.034,7.017-3.597c0.609-0.563,3.261-2.739,4.106-3.144c0.844-0.406,2.958-1.488,3.383-2.041  c0.429-0.549,1.729-1.423,1.729-1.423c-1.328,0.048-4.134,1.58-4.134,1.58c-0.815,0.348-2.331,1.427-2.331,1.427  c-0.65,0.576-3.976,1.485-3.976,1.485c-2.989,0.8-5.418,2.352-5.418,2.352c-0.821,0.492-2.264,1.038-2.264,1.038  c-1.913,0.556-3.871,0.662-3.871,0.662c0.45-0.647,3.086-2.268,3.787-2.533c0.703-0.267,5.932-3.072,6.683-3.493  c0.747-0.423,2.888-1.559,2.888-1.559c3.906-2.156,6.51-6.538,6.572-6.929s0.598-1.626,0.598-1.626  c-1.421,0.493-2.104,2.143-2.104,2.143c-0.343,0.386-2.153,1.836-2.153,1.836c-3.356,2.726-6.296,3.095-6.296,3.095  c-2.871,0.439-5.749,2.179-5.749,2.179c-1.778,0.978-3.438,0.852-3.438,0.852c1.786-0.655,8.151-4.699,8.522-4.997  c0.368-0.303,3.356-2.125,3.356-2.125c1.648-0.794,4.629-2.659,4.629-2.659c1.343-0.885,2.897-1.235,2.897-1.235  c-2.036-0.282-4.772,1.457-4.772,1.457c-0.95,0.667-3.82,1.11-3.82,1.11c-4.387,0.781-6.442,1.752-6.442,1.752  c-1.067,0.429-5.037,2.235-5.037,2.235c0.229-0.303,2.923-1.754,4.052-2.433c1.127-0.679,3.104-2.042,3.104-2.042  c2.645-1.758,5.168-4.915,5.168-4.915c0.546-0.911,1.403-2.156,1.403-2.156c1.893-2.818,1.613-5.463,1.613-5.463  c-0.143-0.464-0.252-2.424-0.252-2.424c-0.095,4.85-3.991,8.205-3.991,8.205c-4.545,4.256-9.464,5.39-9.464,5.39  c8.855-5.106,11.125-10.403,11.505-11.264c0.378-0.86,1.026-3.056,1.026-3.056c-0.686,0.311-3.285,3.535-3.285,3.535  c-0.275,0.738-4.496,3.223-4.496,3.223c-2.182,1.151-5.972,3.965-5.972,3.965c0.586-0.925,5.898-5.377,5.898-5.377  c2.625-2.403,4.803-9.014,4.783-9.518c-0.021-0.504,0.324-1.906,0.324-1.906c-0.848,0.542-2.471,3.323-2.471,3.323  c-0.14,0.739-1.649,2.556-1.649,2.556c-1.174,1.714-5.02,4.5-5.02,4.5c0.089-0.446,4.354-4.843,4.354-4.843  c1.608-1.944,2.75-4.945,2.75-4.945c0.04-0.613,1.617-3.101,1.617-3.101c-1.717,0.584-3.507,4.16-3.507,4.16  c-0.281,1.015-1.922,2.132-1.922,2.132c-0.311,0.19-2.967,1.768-2.967,1.768c0.097-0.445,3.022-3.499,3.022-3.499  c1.5-2,1.057-3.853,1.057-3.853c-0.118-0.518-0.259-2.002-0.259-2.002c-0.434,0.693-1.053,2.694-1.053,2.694  c-0.447,1.669-2.515,3.478-2.515,3.478s0.14-1.407,0.439-2.87c0.681-3.338,1.892-5.6,1.892-5.6c0.54-1.375,3.044-2.394,3.044-2.394  c1.043-0.513,3.144-0.896,3.856-0.843c0.514,0.04,1.921-0.186,2.665-0.311c0.18-0.018,0.343-0.042,0.476-0.084  c0,0-5.033-0.659-5.605-0.703c-0.577-0.043-2.504-0.076-3.28,0.781c0,0,0.177-1.375,0.048-1.782c0,0-0.803,1.374-1.497,2.378  c-0.693,1.004-3.293,3.652-4.621,7.066l-1.005-0.693l0.427,2.781c0,0-2.757-3.058-3.661-5.579c0,0,1-3.234,0.639-4.018  c0,0-0.893,2.862-1.386,3.803c0,0-0.969,1.539,1.439,5.27c0,0,2.823,3.264,3.142,4.284c0,0-2.469-2.138-3.568-3.141  c-1.102-0.998-2.815-1.807-3.407-4.761c0,0,0.389-3.427,0.163-4.154c0,0-0.507,2.955-0.928,3.648c0,0-1.056,2.487,1.929,5.62  c0,0,1.54,1.593,2.646,3.08c0,0,2.026,2.634,2.192,4.42c0,0-3.782-2.881-4.197-3.948c-0.418-1.068-0.995-2.401-1.113-2.764  c-0.113-0.364-2.001-5.599-4.624-5.811c0,0,1.489,1.687,1.811,2.704c0,0,0.832,1.893,1.281,2.55c0,0,0.622,1.479,0.795,2.785  c0,0,0.368,3.955,3.516,5.84c0,0,1.957,1.14,2.578,2.861c0,0-3.399-1.407-4.52-3.446c0,0-0.862-1.726-2.245-2.568  c0,0-1.522-1.278-0.575-4.611c0.065-0.23,0.065-0.23,0.065-0.23s-1.896,1.764-1.25,4.837c0,0,0.413,1.308,1.265,2.236  c0,0,2.285,2.954,2.827,3.661c0.545,0.708,2.845,2.938,3.199,4.825c0,0-3.87-3.415-5.181-4.278c0,0-2.073-1.506-2.596-3.417  c0,0,0.099-2.983-0.507-4.151c0,0-0.049,2.65-0.433,4.208c0,0-0.468,3.581,2.408,5.629c0,0,5.567,4.884,5.865,6.144  c0,0-9.573-8.319-21.179-8.817c0,0,15.671,6.289,20.941,15.177c0,0-8.481-3.053-12.303-3.419c0,0-8.458-2.137-11.265-3.695  c2.48,1.713,10.802,7.284,15.924,8.51c0,0,6.73,2.483,8.009,4.772c0,0-7.388-1.377-8.468-1.598  c-1.083-0.222-8.506-1.698-10.669-1.801c0,0-6.037-1.358-7.599-3.108c0,0,2.065,4.066,11.916,6.123  c0.565,0.117,0.565,0.117,0.565,0.117s7.227,1.47,13.729,5.372c0,0,1.248,0.391-0.256,1.315c0,0-1.458,0.008-3.28-0.426  c0,0-6.309-1.157-10.293,0.097c0,0-8.452,1.315-10.174,1.187c0,0,13.214,1.336,16.859,1.872c0,0,6.495,0.311,8.069,3.181  c0,0,0.466,0.754-0.555,1.074c0,0-3.517-0.466-6.379-1.355c-2.86-0.897-7.76-1.485-9.042-1.641c-1.034-0.129-4.227-0.6-5.821-1.121  c1.982,0.903,7.113,3.15,10.245,3.766c0,0,3.669,1.314,4.903,2.383c0,0,6.61,3.53,7.486,3.817c0,0-8.995,1.374-10.451,1.386  c0,0-3.977-3.015-5.626-3.619c0,0-4.676-2.823-5.85-3.915c0.958,0.95,6.504,6.409,9.133,7.932c0,0-4.604-0.009-6.056-0.336  c0,0-3.334-0.972-4.523-0.824c0,0,4.416,1.193,5.625,1.82c0,0,2.713,1.841,7.357,1.274c0,0,2.279,1.695,4.448,3.329h0.057  c1.107,0.681,4.914,2.938,7.442,3.444c0,0-0.697,8.105-1.29,10.195h1.399c0,0,1.104-8.613,1.167-10.118c0,0,3.315-1.661,6.772-4.564  c0.405-0.231,0.714-0.399,0.847-0.469c0.673-0.353,4.196-2.109,4.196-2.109c3.394-2.456,8.684-2.273,8.684-2.273  c1.579,0.155,5.176-0.33,5.176-0.33C96.19,80.05,94.06,79.61,94.06,79.61z M67.589,86.062c-1.889-0.855-4.417-2.086-6.325-3.328  c0,0,6.034,0.252,8.346,3.412l0.591,1.052L67.589,86.062z M72.562,83.257c0.006-0.36,0.473-1.521,0.473-1.521  c0.183-1.13,1.816-2.003,1.816-2.003c0.378,0.241,5.507,0.059,6.751-0.157c1.246-0.214,5.008-0.384,5.008-0.384  C78.829,79.854,72.562,83.257,72.562,83.257z"></path></svg>