<?xml version="1.0" encoding="utf-8"?>
<!-- Generator: Adobe Illustrator 25.0.1, SVG Export Plug-In . SVG Version: 6.00 Build 0)  -->
<svg version="1.0" id="katman_1" xmlns="http://www.w3.org/2000/svg" xmlns:xlink="http://www.w3.org/1999/xlink" x="0px" y="0px"
	 viewBox="0 0 732 552" style="enable-background:new 0 0 732 552;" xml:space="preserve">
<style type="text/css">
	.st0{fill:#050000;}
	.st1{fill:#050000;}
	.st2{fill:#FFFFFF;}
</style>
<g id="Logo">
	<rect x="236" y="157" class="st0" width="400" height="200"/>
	<rect x="96" y="157" class="st1" width="140" height="200"/>
	<path class="st2" d="M187.2,192.3c-1.3-1.8-4.3-4.6-6.9-6.3c-11.6-7.3-27.1-4.2-35.3,5.7c-1.4,1.7-0.4,1.6,0.2,1.3
		c12.7-5.9,26.9-7.1,41.7,0.6C187.5,193.9,188.6,194.2,187.2,192.3 M146.1,321.8c1.4,1.8,4.3,4.6,7,6.2c11.6,7.2,27.2,4,35.2-5.9
		c1.3-1.5,0.3-1.6-0.2-1.3c-12.7,6-26.9,7.3-41.7-0.3C145.7,320.2,145,320.4,146.1,321.8 M133.6,217.9c-1.2,2-0.8,2.8-0.3,2.8
		s0.8-0.3,1.6-0.9c15.3-13.2,39-14,53.8-3.9c3.2,2.2,6.3,4.8,8.9,7.6c0.8,0.8,1.2,1.2,1.6,1.2s0.8-0.6,0.1-2.1
		c-2.5-6-6.9-12.7-13.4-17C168,194.1,144.4,199.6,133.6,217.9 M199.8,296.2c1.2-2,0.8-2.8,0.3-2.8s-0.8,0.3-1.6,0.9
		c-15.4,13.3-37,15.1-54.5,4.1c-3.4-2.1-6.4-4.6-9-7.4c-0.8-0.8-1.2-1.2-1.6-1.2c-0.4,0-0.8,0.6-0.1,2.1c2.8,6.8,7.8,12.7,14.5,16.9
		C165.4,319.8,189,314.6,199.8,296.2 M177.1,252.3c1-1,1.7-2.6,1.8-5.1c0.3-6.9-5.1-13.6-16.8-13.1c-6.5,0.3-18.1,6.7-18,21
		c0.1,14.4,11.3,25.1,25.6,25.8c17.2,0.9,29.3-11.3,33.6-22.2c0.8-2.2,1.1-2.6,1.6-2.6s1,0.8,0.3,4.7c-2.4,13.4-13.2,30.4-36.1,31.2
		c-23.4,0.8-39.7-18.6-38.5-38.7c1.4-22.8,21.2-33.1,36.7-31.2c16.3,1.9,25.1,13.5,23.7,27.3c-1.3,13.7-14.4,21.2-25.1,17.3
		c-11.2-4.1-10.1-17.4-3.5-21.4c5.4-3.3,14.3-0.9,13.4,6.5C175.8,252.8,176.4,253,177.1,252.3"/>
	<path class="st2" d="M592.7,289.3H540l52.1-67.8v-24.2h-91.8V225h52.2l-52.9,67.7V317h93.1V289.3z M486.5,197.3h-29.8v65.2
		L415,197.3h-30.4V317h29.6v-69.3l45.3,69.3h26.9V197.3H486.5z M308.1,251.5v-26.8h17.1c10.9,0,16.2,5,16.2,13.5
		c0,8-5.2,13.3-16.2,13.3H308.1z M308.1,277.3h9.7l22.3,39.7h35.5l-26.1-43.8c14.4-6.2,22.6-18.8,22.6-35.8c0-25.7-17.3-40-45.3-40
		h-49.7V317h31V277.3z"/>
</g>
</svg>
