<?xml version="1.0" encoding="UTF-8"?>
<svg width="1754px" height="1754px" viewBox="0 0 1754 1754" version="1.1" xmlns="http://www.w3.org/2000/svg" xmlns:xlink="http://www.w3.org/1999/xlink">
    <title>Untitled</title>
    <g id="Page-1" stroke="none" stroke-width="1" fill="none" fill-rule="evenodd">
        <g id="Symbol_Blue" fill="#005BB2">
            <path d="M1753.5,0 L0,0 L0,1753.5 L1753.5,1753.5 M1531.23,439.821 C1517.77,418.956 1489.94,412.9533 1469.08,426.414 L1255.43,564.249 L1307.19,644.494 L1454.6,549.397 C1430.04,587.303 1407.27,629.02 1394.18,667.385 C1383.07,699.925 1377.78,733.272 1387.79,760.3 C1398.61,789.557 1425.23,806.557 1465.78,809.792 C1506.47,813.038 1536.45,800.622 1555.53,775.573 C1573.74,751.656 1579.97,718.779 1580.11,684.92 C1580.38,622.614 1560.01,548.444 1539.66,494.524 L1558.63,482.286 M1468.28,778.48 C1500.7,781.066 1519.26,771.345 1530.53,756.544 C1542.66,740.613 1548.57,715.932 1548.7,684.785 C1548.92,632.243 1532.76,568.46 1514.8,517.97 C1479.81,564.728 1441.69,625.419 1423.9,677.53 C1413.41,708.296 1411.13,732.872 1417.25,749.398 M468.088,682.221 L1605.52,1338.92 C1605.63,1336.97 1605.22,1334.96 1604.21,1333.05 L1595.79,1317.226 C1577.06,1281.993 1549,1252.583 1514.69,1232.208 L511.161,636.266 C511.161,636.266 578.422,566.606 580.805,564.223 C583.453,561.575 588.143,561.575 590.791,564.223 C606.009,579.441 630.683,579.441 645.901,564.223 C661.119,549.005 661.119,524.332 645.901,509.113 C643.253,506.465 643.253,501.776 645.901,499.128 C661.119,483.909 661.119,459.236 645.901,444.018 C630.683,428.8 606.009,428.8 590.791,444.018 C588.143,446.666 583.453,446.666 580.805,444.018 C565.587,428.8 540.914,428.8 525.695,444.018 C510.477,459.236 510.477,483.909 525.695,499.128 C528.343,501.776 528.343,506.465 525.695,509.113 C524.749,510.059 508.174,523.901 486.386,542.096 L486.367,542.112 L486.36,542.117 L486.357,542.12 C442.518,578.728 377.605,632.934 376.415,635.197 C375.084,637.328 360.624,720.413 350.83,776.688 L350.829,776.695 L350.826,776.712 C345.933,804.827 342.205,826.244 341.863,827.52 C340.894,831.137 336.832,833.482 333.215,832.513 C312.427,826.943 291.059,839.28 285.489,860.068 C279.918,880.856 292.255,902.224 313.044,907.794 C316.661,908.764 319.006,912.825 318.036,916.442 C312.466,937.231 324.803,958.599 345.591,964.169 C366.38,969.739 387.748,957.402 393.318,936.614 C394.287,932.997 398.349,930.652 401.966,931.621 C422.754,937.191 444.122,924.855 449.693,904.066 C455.263,883.278 442.926,861.91 422.138,856.34 C418.52,855.37 416.175,851.309 417.145,847.692 C418.017,844.437 444.713,751.357 444.713,751.357 L1462.58,1322.47 C1497.38,1342 1536.88,1351.59 1576.76,1350.2 L1594.67,1349.57 C1596.83,1349.49 1598.78,1348.84 1600.41,1347.77 L462.975,691.077 L464.498,686.052 M630.716,549.039 C623.884,555.871 612.808,555.871 605.976,549.039 C599.143,542.207 599.144,531.13 605.976,524.298 C612.808,517.466 623.884,517.466 630.716,524.298 M630.716,459.202 C637.548,466.034 637.548,477.111 630.716,483.943 C623.884,490.775 612.808,490.775 605.976,483.943 C599.143,477.111 599.144,466.034 605.976,459.202 M565.621,549.039 C572.453,542.207 572.453,531.13 565.621,524.298 C558.789,517.466 547.712,517.466 540.88,524.298 C534.048,531.13 534.048,542.207 540.88,549.039 M565.621,483.943 C558.789,490.775 547.712,490.775 540.88,483.943 C534.048,477.111 534.048,466.034 540.88,459.202 C547.712,452.37 558.789,452.37 565.621,459.202 M577.77,512.149 C574.098,508.477 569.808,505.801 565.234,504.12 C569.808,502.44 574.098,499.764 577.77,496.092 C581.441,492.42 584.117,488.13 585.798,483.557 C587.479,488.13 590.155,492.42 593.827,496.092 C597.498,499.764 601.789,502.44 606.362,504.121 C601.789,505.801 597.498,508.477 593.827,512.149 C590.155,515.821 587.479,520.111 585.798,524.684 M428.95,898.508 C431.451,889.176 425.912,879.583 416.58,877.082 C407.247,874.581 397.654,880.12 395.154,889.453 C392.653,898.785 398.191,908.378 407.524,910.879 M351.149,943.427 C360.482,945.927 370.075,940.389 372.576,931.056 C375.076,921.724 369.538,912.131 360.205,909.63 C350.872,907.129 341.28,912.668 338.779,922 M396.402,842.134 C393.902,851.466 384.309,857.005 374.976,854.504 C365.643,852.004 360.105,842.411 362.606,833.078 C365.106,823.745 374.699,818.207 384.032,820.708 M340.028,874.682 C342.528,865.349 336.99,855.756 327.657,853.255 C318.325,850.755 308.732,856.293 306.231,865.626 C303.73,874.959 309.269,884.551 318.602,887.052 M370.529,871.1 C365.514,869.756 361.051,867.379 357.309,864.258 C358.14,869.059 357.967,874.113 356.624,879.128 C355.28,884.144 352.902,888.607 349.782,892.349 C354.583,891.518 359.636,891.69 364.652,893.034 C369.668,894.378 374.13,896.755 377.873,899.876 C377.041,895.075 377.214,890.021 378.558,885.006 C379.902,879.99 382.279,875.527 385.399,871.785 M365.813,629.076 L399.24,603.9 L266.44,527.228 C264.569,506.197 252.824,486.377 233.15,475.018 C201.062,456.492 160.033,467.486 141.507,499.573 C122.981,531.66 133.975,572.69 166.063,591.216 C185.737,602.575 208.774,602.836 227.924,593.941 L360.724,670.613 M1242.34,673.138 L1202.59,611.532 L876.347,822.003 L948.521,862.688 M750.895,963.717 L722.508,947.715 L328.483,1201.913 C304.162,1168.995 276.012,1150.12 262.426,1158.884 C247.281,1168.655 255.97,1209.076 281.833,1249.166 C307.697,1289.257 340.942,1313.836 356.087,1304.065 C369.673,1295.3 364.08,1261.873 344.115,1226.144 M273.564,1271.659 L257.932,1247.428 L179.389,1298.099 C169.691,1304.356 163.417,1314.733 162.383,1326.23 C173.282,1330.02 185.322,1328.59 195.021,1322.33 M1224.55,567.236 C1229.4,564.105 1235.87,565.501 1239,570.354 L1294.86,656.941 C1297.99,661.793 1296.6,668.265 1291.74,671.395 L1279.23,679.471 C1274.37,682.602 1267.9,681.206 1264.77,676.353 L1208.91,589.766 C1205.78,584.914 1207.18,578.442 1212.03,575.312" id="Shape"></path>
        </g>
    </g>
</svg>