<svg xmlns="http://www.w3.org/2000/svg" viewBox="0 0 216 216"><defs><style>.cls-1{fill:#af1f8e;}.cls-2{fill:#2e3192;}.cls-3{fill:#762b90;}.cls-4{fill:#ec008c;}</style></defs><g id="Layer_1" data-name="Layer 1"><path class="cls-1" d="M124.84,131.79a29.83,29.83,0,0,0,3.44-3.32,30.3,30.3,0,0,0,7.68-18c.07-.74.11-1.55.11-2.43s0-1.7-.11-2.47a30.32,30.32,0,0,0-7.68-18,30,30,0,0,0-3.44-3.32V72.09l.75.42a40,40,0,0,1,6.78,4.88,40.91,40.91,0,0,1,0,61.21,40.54,40.54,0,0,1-6.78,4.88l-.76.43Z"/><path class="cls-2" d="M105.22,177.71A69.61,69.61,0,0,1,82.72,174l8.1-8.1a60,60,0,0,0,14.38,1.75,59.23,59.23,0,0,0,42.18-17.48A59.85,59.85,0,0,0,163.1,93.62l8.1-8.11a69.72,69.72,0,0,1-66,92.2Z"/><path class="cls-2" d="M54.44,155.79A69.72,69.72,0,0,1,153,57.24l-7.13,7.13a59.64,59.64,0,0,0-84.29,84.29Z"/><path class="cls-3" d="M149.2,118.59a45.24,45.24,0,0,0-44-55.83c-.9,0-1.81,0-2.71.08A45.11,45.11,0,0,0,94.62,64l-8.09-8.09c1.38-.5,2.79-.94,4.2-1.32a55.68,55.68,0,0,1,14.48-1.91,54.94,54.94,0,0,1,39.11,16.19,55.57,55.57,0,0,1,14.3,53.61c-.38,1.41-.83,2.81-1.32,4.2Z"/><path class="cls-3" d="M105.22,163.32A55.32,55.32,0,0,1,64.63,70.41l7.14,7.14a45.23,45.23,0,0,0,33.45,75.68h0a44.89,44.89,0,0,0,30.44-11.78l7.13,7.13A54.92,54.92,0,0,1,105.22,163.32Z"/><path class="cls-1" d="M103.1,148.86a40.92,40.92,0,0,1,0-81.72v10.1a30.83,30.83,0,0,0,0,61.52Z"/><path class="cls-4" d="M105.23,134.51A26.51,26.51,0,1,1,131.75,108,26.54,26.54,0,0,1,105.23,134.51Z"/></g></svg>